<?xml version="1.0" encoding="UTF-8"?>
<!--Generator: Apple Native CoreSVG 129-->
<!DOCTYPE svg
PUBLIC "-//W3C//DTD SVG 1.1//EN"
       "http://www.w3.org/Graphics/SVG/1.1/DTD/svg11.dtd">
<svg version="1.1" xmlns="http://www.w3.org/2000/svg" xmlns:xlink="http://www.w3.org/1999/xlink" width="3300" height="2200">
 <!--glyph: "uni10004D.medium", point size: 100.000000, font version: "Version 16.0d9e1", template writer version: "8"-->
 <g id="Notes">
  <rect height="2200" id="artboard" style="fill:white;opacity:1" width="3300" x="0" y="0"/>
  <line id="" style="fill:none;stroke:black;opacity:1;stroke-width:0.5;" x1="263" x2="3036" y1="292" y2="292"/>
  <text style="stroke:none;fill:black;font-family:-apple-system,&quot;SF Pro Display&quot;,&quot;SF Pro Text&quot;,Helvetica,sans-serif;font-weight:bold;" transform="matrix(1 0 0 1 263 322)">Weight/Scale Variations</text>
  <text style="stroke:none;fill:black;font-family:-apple-system,&quot;SF Pro Display&quot;,&quot;SF Pro Text&quot;,Helvetica,sans-serif;text-anchor:middle;" transform="matrix(1 0 0 1 559.711 322)">Ultralight</text>
  <text style="stroke:none;fill:black;font-family:-apple-system,&quot;SF Pro Display&quot;,&quot;SF Pro Text&quot;,Helvetica,sans-serif;text-anchor:middle;" transform="matrix(1 0 0 1 856.422 322)">Thin</text>
  <text style="stroke:none;fill:black;font-family:-apple-system,&quot;SF Pro Display&quot;,&quot;SF Pro Text&quot;,Helvetica,sans-serif;text-anchor:middle;" transform="matrix(1 0 0 1 1153.13 322)">Light</text>
  <text style="stroke:none;fill:black;font-family:-apple-system,&quot;SF Pro Display&quot;,&quot;SF Pro Text&quot;,Helvetica,sans-serif;text-anchor:middle;" transform="matrix(1 0 0 1 1449.84 322)">Regular</text>
  <text style="stroke:none;fill:black;font-family:-apple-system,&quot;SF Pro Display&quot;,&quot;SF Pro Text&quot;,Helvetica,sans-serif;text-anchor:middle;" transform="matrix(1 0 0 1 1746.56 322)">Medium</text>
  <text style="stroke:none;fill:black;font-family:-apple-system,&quot;SF Pro Display&quot;,&quot;SF Pro Text&quot;,Helvetica,sans-serif;text-anchor:middle;" transform="matrix(1 0 0 1 2043.27 322)">Semibold</text>
  <text style="stroke:none;fill:black;font-family:-apple-system,&quot;SF Pro Display&quot;,&quot;SF Pro Text&quot;,Helvetica,sans-serif;text-anchor:middle;" transform="matrix(1 0 0 1 2339.98 322)">Bold</text>
  <text style="stroke:none;fill:black;font-family:-apple-system,&quot;SF Pro Display&quot;,&quot;SF Pro Text&quot;,Helvetica,sans-serif;text-anchor:middle;" transform="matrix(1 0 0 1 2636.69 322)">Heavy</text>
  <text style="stroke:none;fill:black;font-family:-apple-system,&quot;SF Pro Display&quot;,&quot;SF Pro Text&quot;,Helvetica,sans-serif;text-anchor:middle;" transform="matrix(1 0 0 1 2933.4 322)">Black</text>
  <line id="" style="fill:none;stroke:black;opacity:1;stroke-width:0.5;" x1="263" x2="3036" y1="1903" y2="1903"/>
  <g id="" transform="matrix(1 0 0 1 263 1933)">
   <path d="M 9.24805 0.830078 C 13.5547 0.830078 17.1387 -2.74414 17.1387 -7.05078 C 17.1387 -11.3574 13.5449 -14.9316 9.23828 -14.9316 C 4.94141 -14.9316 1.36719 -11.3574 1.36719 -7.05078 C 1.36719 -2.74414 4.95117 0.830078 9.24805 0.830078 Z M 9.24805 -0.654297 C 5.70312 -0.654297 2.87109 -3.49609 2.87109 -7.05078 C 2.87109 -10.6055 5.69336 -13.4473 9.23828 -13.4473 C 12.793 -13.4473 15.6348 -10.6055 15.6445 -7.05078 C 15.6543 -3.49609 12.8027 -0.654297 9.24805 -0.654297 Z M 9.22852 -3.62305 C 9.69727 -3.62305 9.9707 -3.93555 9.9707 -4.45312 L 9.9707 -6.31836 L 12.002 -6.31836 C 12.5 -6.31836 12.832 -6.57227 12.832 -7.04102 C 12.832 -7.51953 12.5195 -7.7832 12.002 -7.7832 L 9.9707 -7.7832 L 9.9707 -9.81445 C 9.9707 -10.332 9.69727 -10.6543 9.22852 -10.6543 C 8.75977 -10.6543 8.50586 -10.3125 8.50586 -9.81445 L 8.50586 -7.7832 L 6.49414 -7.7832 C 5.97656 -7.7832 5.64453 -7.51953 5.64453 -7.04102 C 5.64453 -6.57227 5.99609 -6.31836 6.49414 -6.31836 L 8.50586 -6.31836 L 8.50586 -4.45312 C 8.50586 -3.95508 8.75977 -3.62305 9.22852 -3.62305 Z"/>
  </g>
  <g id="" transform="matrix(1 0 0 1 281.506 1933)">
   <path d="M 11.709 2.91016 C 17.1582 2.91016 21.6699 -1.61133 21.6699 -7.05078 C 21.6699 -12.5 17.1484 -17.0117 11.6992 -17.0117 C 6.25977 -17.0117 1.74805 -12.5 1.74805 -7.05078 C 1.74805 -1.61133 6.26953 2.91016 11.709 2.91016 Z M 11.709 1.25 C 7.09961 1.25 3.41797 -2.44141 3.41797 -7.05078 C 3.41797 -11.6602 7.08984 -15.3516 11.6992 -15.3516 C 16.3086 -15.3516 20 -11.6602 20.0098 -7.05078 C 20.0195 -2.44141 16.3184 1.25 11.709 1.25 Z M 11.6797 -2.66602 C 12.207 -2.66602 12.5098 -3.01758 12.5098 -3.59375 L 12.5098 -6.23047 L 15.3223 -6.23047 C 15.8691 -6.23047 16.25 -6.51367 16.25 -7.03125 C 16.25 -7.55859 15.8887 -7.86133 15.3223 -7.86133 L 12.5098 -7.86133 L 12.5098 -10.6836 C 12.5098 -11.25 12.207 -11.6113 11.6797 -11.6113 C 11.1621 -11.6113 10.8789 -11.2305 10.8789 -10.6836 L 10.8789 -7.86133 L 8.07617 -7.86133 C 7.50977 -7.86133 7.13867 -7.55859 7.13867 -7.03125 C 7.13867 -6.51367 7.5293 -6.23047 8.07617 -6.23047 L 10.8789 -6.23047 L 10.8789 -3.59375 C 10.8789 -3.03711 11.1621 -2.66602 11.6797 -2.66602 Z"/>
  </g>
  <g id="" transform="matrix(1 0 0 1 304.924 1933)">
   <path d="M 14.9707 5.66406 C 21.9336 5.66406 27.6953 -0.0976562 27.6953 -7.05078 C 27.6953 -14.0137 21.9238 -19.7754 14.9609 -19.7754 C 8.00781 -19.7754 2.25586 -14.0137 2.25586 -7.05078 C 2.25586 -0.0976562 8.01758 5.66406 14.9707 5.66406 Z M 14.9707 3.84766 C 8.93555 3.84766 4.08203 -1.01562 4.08203 -7.05078 C 4.08203 -13.0957 8.92578 -17.9492 14.9609 -17.9492 C 21.0059 -17.9492 25.8594 -13.0957 25.8691 -7.05078 C 25.8789 -1.01562 21.0156 3.84766 14.9707 3.84766 Z M 14.9414 -1.38672 C 15.5176 -1.38672 15.8594 -1.77734 15.8594 -2.38281 L 15.8594 -6.13281 L 19.7754 -6.13281 C 20.3711 -6.13281 20.7812 -6.46484 20.7812 -7.02148 C 20.7812 -7.59766 20.3906 -7.93945 19.7754 -7.93945 L 15.8594 -7.93945 L 15.8594 -11.8652 C 15.8594 -12.4805 15.5176 -12.8711 14.9414 -12.8711 C 14.375 -12.8711 14.0527 -12.4609 14.0527 -11.8652 L 14.0527 -7.93945 L 10.1465 -7.93945 C 9.53125 -7.93945 9.13086 -7.59766 9.13086 -7.02148 C 9.13086 -6.46484 9.55078 -6.13281 10.1465 -6.13281 L 14.0527 -6.13281 L 14.0527 -2.38281 C 14.0527 -1.79688 14.375 -1.38672 14.9414 -1.38672 Z"/>
  </g>
  <text style="stroke:none;fill:black;font-family:-apple-system,&quot;SF Pro Display&quot;,&quot;SF Pro Text&quot;,Helvetica,sans-serif;font-weight:bold;" transform="matrix(1 0 0 1 263 1953)">Design Variations</text>
  <text style="stroke:none;fill:black;font-family:-apple-system,&quot;SF Pro Display&quot;,&quot;SF Pro Text&quot;,Helvetica,sans-serif;" transform="matrix(1 0 0 1 263 1971)">Symbols are supported in up to nine weights and three scales.</text>
  <text style="stroke:none;fill:black;font-family:-apple-system,&quot;SF Pro Display&quot;,&quot;SF Pro Text&quot;,Helvetica,sans-serif;" transform="matrix(1 0 0 1 263 1989)">For optimal layout with text and other symbols, vertically align</text>
  <text style="stroke:none;fill:black;font-family:-apple-system,&quot;SF Pro Display&quot;,&quot;SF Pro Text&quot;,Helvetica,sans-serif;" transform="matrix(1 0 0 1 263 2007)">symbols with the adjacent text.</text>
  <line id="" style="fill:none;stroke:#00AEEF;stroke-width:0.5;opacity:1.0;" x1="776" x2="776" y1="1919" y2="1933"/>
  <g id="" transform="matrix(1 0 0 1 776 1933)">
   <path d="M 3.31055 0.126953 C 3.82812 0.126953 4.08203 -0.0683594 4.26758 -0.605469 L 5.52734 -4.0625 L 11.2891 -4.0625 L 12.5488 -0.605469 C 12.7344 -0.0683594 12.9883 0.126953 13.4961 0.126953 C 14.0137 0.126953 14.3457 -0.185547 14.3457 -0.673828 C 14.3457 -0.839844 14.3164 -0.986328 14.2383 -1.20117 L 9.6582 -13.3887 C 9.43359 -13.9941 9.0332 -14.2871 8.4082 -14.2871 C 7.80273 -14.2871 7.39258 -13.9941 7.17773 -13.3984 L 2.59766 -1.19141 C 2.51953 -0.976562 2.49023 -0.830078 2.49023 -0.664062 C 2.49023 -0.175781 2.80273 0.126953 3.31055 0.126953 Z M 6.00586 -5.53711 L 8.37891 -12.1094 L 8.42773 -12.1094 L 10.8008 -5.53711 Z"/>
  </g>
  <line id="" style="fill:none;stroke:#00AEEF;stroke-width:0.5;opacity:1.0;" x1="792.836" x2="792.836" y1="1919" y2="1933"/>
  <text style="stroke:none;fill:black;font-family:-apple-system,&quot;SF Pro Display&quot;,&quot;SF Pro Text&quot;,Helvetica,sans-serif;font-weight:bold;" transform="matrix(1 0 0 1 776 1953)">Margins</text>
  <text style="stroke:none;fill:black;font-family:-apple-system,&quot;SF Pro Display&quot;,&quot;SF Pro Text&quot;,Helvetica,sans-serif;" transform="matrix(1 0 0 1 776 1971)">Leading and trailing margins on the left and right side of each symbol</text>
  <text style="stroke:none;fill:black;font-family:-apple-system,&quot;SF Pro Display&quot;,&quot;SF Pro Text&quot;,Helvetica,sans-serif;" transform="matrix(1 0 0 1 776 1989)">can be adjusted by modifying the x-location of the margin guidelines.</text>
  <text style="stroke:none;fill:black;font-family:-apple-system,&quot;SF Pro Display&quot;,&quot;SF Pro Text&quot;,Helvetica,sans-serif;" transform="matrix(1 0 0 1 776 2007)">Modifications are automatically applied proportionally to all</text>
  <text style="stroke:none;fill:black;font-family:-apple-system,&quot;SF Pro Display&quot;,&quot;SF Pro Text&quot;,Helvetica,sans-serif;" transform="matrix(1 0 0 1 776 2025)">scales and weights.</text>
  <g id="" transform="matrix(1 0 0 1 1289 1933)">
   <path d="M 2.8418 1.86523 L 4.54102 3.57422 C 5.40039 4.44336 6.38672 4.38477 7.31445 3.35938 L 17.4902 -7.85156 C 17.7539 -7.76367 18.0273 -7.7832 18.3398 -7.8418 L 19.4043 -8.03711 L 20.0684 -7.36328 L 20.0293 -6.80664 C 19.9902 -6.30859 20.1172 -5.92773 20.6055 -5.44922 L 21.3672 -4.70703 C 21.8457 -4.22852 22.4609 -4.19922 22.9297 -4.66797 L 25.8398 -7.58789 C 26.3086 -8.05664 26.2891 -8.65234 25.8105 -9.13086 L 25.0391 -9.89258 C 24.5605 -10.3711 24.1895 -10.5273 23.7109 -10.4883 L 23.1348 -10.4395 L 22.4902 -11.0742 L 22.7344 -12.1973 C 22.8613 -12.7637 22.7051 -13.2031 22.1191 -13.7891 L 19.9219 -15.9766 C 16.582 -19.2969 12.1484 -19.2188 9.25781 -16.3281 C 8.83789 -15.918 8.80859 -15.3418 9.04297 -14.9512 C 9.27734 -14.5898 9.73633 -14.3555 10.3809 -14.5215 C 11.8457 -14.8633 13.3691 -14.9219 14.7949 -13.9844 L 14.209 -12.5293 C 14.0137 -12.0508 13.9844 -11.6504 14.1113 -11.2891 L 3.04688 -0.898438 C 2.06055 0.0195312 1.98242 0.996094 2.8418 1.86523 Z M 10.752 -15.957 C 13.1836 -17.7344 16.4746 -17.4316 18.7012 -15.2051 L 21.1328 -12.793 C 21.3672 -12.5586 21.4062 -12.373 21.3379 -12.0312 L 21.0156 -10.5469 L 22.5195 -9.0625 L 23.5059 -9.12109 C 23.7598 -9.13086 23.8379 -9.11133 24.0332 -8.91602 L 24.6094 -8.33984 L 22.168 -5.89844 L 21.5918 -6.47461 C 21.3965 -6.66992 21.3672 -6.74805 21.377 -7.01172 L 21.4453 -7.98828 L 19.9512 -9.47266 L 18.4277 -9.21875 C 18.1055 -9.15039 17.959 -9.17969 17.7148 -9.41406 L 15.7129 -11.416 C 15.459 -11.6504 15.4297 -11.8164 15.5859 -12.1875 L 16.4648 -14.2773 C 14.9023 -15.7324 12.8711 -16.3574 10.8398 -15.7617 C 10.6836 -15.7227 10.625 -15.8496 10.752 -15.957 Z M 5.27344 2.30469 L 4.10156 1.14258 C 3.63281 0.683594 3.74023 0.341797 4.14062 -0.0195312 L 14.9512 -10.1953 L 16.416 -8.71094 L 6.42578 2.27539 C 6.07422 2.67578 5.74219 2.77344 5.27344 2.30469 Z"/>
  </g>
  <text style="stroke:none;fill:black;font-family:-apple-system,&quot;SF Pro Display&quot;,&quot;SF Pro Text&quot;,Helvetica,sans-serif;font-weight:bold;" transform="matrix(1 0 0 1 1289 1953)">Exporting</text>
  <text style="stroke:none;fill:black;font-family:-apple-system,&quot;SF Pro Display&quot;,&quot;SF Pro Text&quot;,Helvetica,sans-serif;" transform="matrix(1 0 0 1 1289 1971)">Symbols should be outlined when exporting to ensure the</text>
  <text style="stroke:none;fill:black;font-family:-apple-system,&quot;SF Pro Display&quot;,&quot;SF Pro Text&quot;,Helvetica,sans-serif;" transform="matrix(1 0 0 1 1289 1989)">design is preserved when submitting to Xcode.</text>
  <text id="template-version" style="stroke:none;fill:black;font-family:-apple-system,&quot;SF Pro Display&quot;,&quot;SF Pro Text&quot;,Helvetica,sans-serif;text-anchor:end;" transform="matrix(1 0 0 1 3036 1933)">Template v.2.0</text>
  <text style="stroke:none;fill:black;font-family:-apple-system,&quot;SF Pro Display&quot;,&quot;SF Pro Text&quot;,Helvetica,sans-serif;text-anchor:end;" transform="matrix(1 0 0 1 3036 1951)">Requires Xcode 12 or greater</text>
  <text style="stroke:none;fill:black;font-family:-apple-system,&quot;SF Pro Display&quot;,&quot;SF Pro Text&quot;,Helvetica,sans-serif;text-anchor:end;" transform="matrix(1 0 0 1 3036 1969)">Generated from plus.circle.fill</text>
  <text style="stroke:none;fill:black;font-family:-apple-system,&quot;SF Pro Display&quot;,&quot;SF Pro Text&quot;,Helvetica,sans-serif;text-anchor:end;" transform="matrix(1 0 0 1 3036 1987)">Typeset at 100 points</text>
  <text style="stroke:none;fill:black;font-family:-apple-system,&quot;SF Pro Display&quot;,&quot;SF Pro Text&quot;,Helvetica,sans-serif;" transform="matrix(1 0 0 1 263 726)">Small</text>
  <text style="stroke:none;fill:black;font-family:-apple-system,&quot;SF Pro Display&quot;,&quot;SF Pro Text&quot;,Helvetica,sans-serif;" transform="matrix(1 0 0 1 263 1156)">Medium</text>
  <text style="stroke:none;fill:black;font-family:-apple-system,&quot;SF Pro Display&quot;,&quot;SF Pro Text&quot;,Helvetica,sans-serif;" transform="matrix(1 0 0 1 263 1586)">Large</text>
 </g>
 <g id="Guides">
  <g id="H-reference" style="fill:#27AAE1;stroke:none;" transform="matrix(1 0 0 1 339 696)">
   <path d="M 0.976562 0 L 3.66211 0 L 12.9883 -24.4629 L 45.7031 -24.4629 L 55.0781 0 L 57.7148 0 L 30.6152 -70.459 L 28.125 -70.459 Z M 29.2969 -67.1387 L 29.3945 -67.1387 L 44.873 -26.709 L 13.8672 -26.709 Z"/>
  </g>
  <line id="Baseline-S" style="fill:none;stroke:#27AAE1;opacity:1;stroke-width:0.5;" x1="263" x2="3036" y1="696" y2="696"/>
  <line id="Capline-S" style="fill:none;stroke:#27AAE1;opacity:1;stroke-width:0.5;" x1="263" x2="3036" y1="625.541" y2="625.541"/>
  <g id="H-reference" style="fill:#27AAE1;stroke:none;" transform="matrix(1 0 0 1 339 1126)">
   <path d="M 0.976562 0 L 3.66211 0 L 12.9883 -24.4629 L 45.7031 -24.4629 L 55.0781 0 L 57.7148 0 L 30.6152 -70.459 L 28.125 -70.459 Z M 29.2969 -67.1387 L 29.3945 -67.1387 L 44.873 -26.709 L 13.8672 -26.709 Z"/>
  </g>
  <line id="Baseline-M" style="fill:none;stroke:#27AAE1;opacity:1;stroke-width:0.5;" x1="263" x2="3036" y1="1126" y2="1126"/>
  <line id="Capline-M" style="fill:none;stroke:#27AAE1;opacity:1;stroke-width:0.5;" x1="263" x2="3036" y1="1055.54" y2="1055.54"/>
  <g id="H-reference" style="fill:#27AAE1;stroke:none;" transform="matrix(1 0 0 1 339 1556)">
   <path d="M 0.976562 0 L 3.66211 0 L 12.9883 -24.4629 L 45.7031 -24.4629 L 55.0781 0 L 57.7148 0 L 30.6152 -70.459 L 28.125 -70.459 Z M 29.2969 -67.1387 L 29.3945 -67.1387 L 44.873 -26.709 L 13.8672 -26.709 Z"/>
  </g>
  <line id="Baseline-L" style="fill:none;stroke:#27AAE1;opacity:1;stroke-width:0.5;" x1="263" x2="3036" y1="1556" y2="1556"/>
  <line id="Capline-L" style="fill:none;stroke:#27AAE1;opacity:1;stroke-width:0.5;" x1="263" x2="3036" y1="1485.54" y2="1485.54"/>
  <line id="left-margin" style="fill:none;stroke:#00AEEF;stroke-width:0.5;opacity:1.0;" x1="1391.3" x2="1391.3" y1="1030.79" y2="1150.12"/>
  <line id="right-margin" style="fill:none;stroke:#00AEEF;stroke-width:0.5;opacity:1.0;" x1="1508.39" x2="1508.39" y1="1030.79" y2="1150.12"/>
 </g>
 <g id="Symbols">
  <g id="Black-L" transform="matrix(1 0 0 1 2854.05 1556)">
   <path d="M 79.3457 32.8613 C 116.748 32.8613 147.412 2.19727 147.412 -35.2051 C 147.412 -72.6074 116.748 -103.271 79.2969 -103.271 C 41.8945 -103.271 11.2793 -72.6074 11.2793 -35.2051 C 11.2793 2.19727 41.9434 32.8613 79.3457 32.8613 Z M 79.2969 -5.27344 C 74.1699 -5.27344 70.5078 -8.93555 70.5078 -14.0137 L 70.5078 -26.3672 L 57.1777 -26.3672 C 52.0996 -26.3672 48.3887 -30.0293 48.3887 -35.1074 C 48.3887 -40.2832 52.0508 -43.9453 57.1777 -43.9453 L 70.5078 -43.9453 L 70.5078 -56.6895 C 70.5078 -61.7676 74.1699 -65.4297 79.2969 -65.4297 C 84.4238 -65.4297 88.0859 -61.8164 88.0859 -56.6895 L 88.0859 -43.9453 L 101.465 -43.9453 C 106.592 -43.9453 110.254 -40.2832 110.254 -35.1074 C 110.254 -30.0293 106.543 -26.3672 101.465 -26.3672 L 88.0859 -26.3672 L 88.0859 -14.0137 C 88.0859 -8.88672 84.4238 -5.27344 79.2969 -5.27344 Z"/>
  </g>
  <g id="Heavy-L" transform="matrix(1 0 0 1 2558.39 1556)">
   <path d="M 78.2715 31.7871 C 115.088 31.7871 145.312 1.5625 145.312 -35.2051 C 145.312 -72.0215 115.039 -102.246 78.2715 -102.246 C 41.4551 -102.246 11.2793 -72.0215 11.2793 -35.2051 C 11.2793 1.5625 41.5039 31.7871 78.2715 31.7871 Z M 78.2227 -5.51758 C 73.6328 -5.51758 70.4102 -8.83789 70.4102 -13.4277 L 70.4102 -27.3438 L 55.5176 -27.3438 C 50.9277 -27.3438 47.5586 -30.5664 47.5586 -35.1562 C 47.5586 -39.7461 50.8789 -42.9688 55.5176 -42.9688 L 70.4102 -42.9688 L 70.4102 -57.4707 C 70.4102 -62.0605 73.6328 -65.3809 78.2227 -65.3809 C 82.8125 -65.3809 86.084 -62.1094 86.084 -57.4707 L 86.084 -42.9688 L 101.025 -42.9688 C 105.664 -42.9688 108.936 -39.7461 108.936 -35.1562 C 108.936 -30.5664 105.615 -27.3438 101.025 -27.3438 L 86.084 -27.3438 L 86.084 -13.4277 C 86.084 -8.74023 82.8125 -5.51758 78.2227 -5.51758 Z"/>
  </g>
  <g id="Bold-L" transform="matrix(1 0 0 1 2262.88 1556)">
   <path d="M 77.0996 30.5664 C 113.232 30.5664 142.92 0.878906 142.92 -35.2539 C 142.92 -71.3379 113.184 -101.074 77.0508 -101.074 C 40.9668 -101.074 11.2793 -71.3379 11.2793 -35.2539 C 11.2793 0.878906 41.0156 30.5664 77.0996 30.5664 Z M 77.002 -5.76172 C 72.998 -5.76172 70.3125 -8.69141 70.3125 -12.7441 L 70.3125 -28.4668 L 53.6621 -28.4668 C 49.6094 -28.4668 46.6309 -31.1523 46.6309 -35.1562 C 46.6309 -39.209 49.5117 -41.8945 53.6621 -41.8945 L 70.3125 -41.8945 L 70.3125 -58.3008 C 70.3125 -62.4023 72.998 -65.2832 77.002 -65.2832 C 81.0547 -65.2832 83.7891 -62.4512 83.7891 -58.3008 L 83.7891 -41.8945 L 100.488 -41.8945 C 104.59 -41.8945 107.471 -39.209 107.471 -35.1562 C 107.471 -31.1523 104.541 -28.4668 100.488 -28.4668 L 83.7891 -28.4668 L 83.7891 -12.7441 C 83.7891 -8.59375 81.0547 -5.76172 77.002 -5.76172 Z"/>
  </g>
  <g id="Semibold-L" transform="matrix(1 0 0 1 1966.97 1556)">
   <path d="M 76.2695 29.7363 C 111.914 29.7363 141.309 0.390625 141.309 -35.2539 C 141.309 -70.8984 111.865 -100.244 76.2695 -100.244 C 40.625 -100.244 11.2793 -70.8984 11.2793 -35.2539 C 11.2793 0.390625 40.6738 29.7363 76.2695 29.7363 Z M 76.1719 -5.95703 C 72.5586 -5.95703 70.2637 -8.59375 70.2637 -12.2559 L 70.2637 -29.248 L 52.3926 -29.248 C 48.7305 -29.248 45.9961 -31.543 45.9961 -35.1562 C 45.9961 -38.8184 48.6328 -41.1621 52.3926 -41.1621 L 70.2637 -41.1621 L 70.2637 -58.8867 C 70.2637 -62.6465 72.5586 -65.2344 76.1719 -65.2344 C 79.834 -65.2344 82.2266 -62.6953 82.2266 -58.8867 L 82.2266 -41.1621 L 100.098 -41.1621 C 103.906 -41.1621 106.445 -38.8184 106.445 -35.1562 C 106.445 -31.543 103.809 -29.248 100.098 -29.248 L 82.2266 -29.248 L 82.2266 -12.2559 C 82.2266 -8.49609 79.834 -5.95703 76.1719 -5.95703 Z"/>
  </g>
  <g id="Medium-L" transform="matrix(1 0 0 1 1670.87 1556)">
   <path d="M 75.6836 29.1504 C 110.938 29.1504 140.088 0 140.088 -35.2539 C 140.088 -70.5078 110.889 -99.6582 75.6348 -99.6582 C 40.3809 -99.6582 11.2793 -70.5078 11.2793 -35.2539 C 11.2793 0 40.3809 29.1504 75.6836 29.1504 Z M 75.5371 -6.10352 C 72.2168 -6.10352 70.2148 -8.49609 70.2148 -11.9141 L 70.2148 -29.834 L 51.4648 -29.834 C 48.0469 -29.834 45.5566 -31.8848 45.5566 -35.1562 C 45.5566 -38.5254 47.9004 -40.625 51.4648 -40.625 L 70.2148 -40.625 L 70.2148 -59.375 C 70.2148 -62.793 72.2168 -65.1855 75.5371 -65.1855 C 78.9062 -65.1855 81.0059 -62.8906 81.0059 -59.375 L 81.0059 -40.625 L 99.8047 -40.625 C 103.32 -40.625 105.713 -38.5254 105.713 -35.1562 C 105.713 -31.8848 103.223 -29.834 99.8047 -29.834 L 81.0059 -29.834 L 81.0059 -11.9141 C 81.0059 -8.39844 78.9062 -6.10352 75.5371 -6.10352 Z"/>
  </g>
  <g id="Regular-L" transform="matrix(1 0 0 1 1374.97 1556)">
   <path d="M 74.8535 28.3203 C 109.668 28.3203 138.477 -0.488281 138.477 -35.2539 C 138.477 -70.0684 109.619 -98.877 74.8047 -98.877 C 40.0391 -98.877 11.2793 -70.0684 11.2793 -35.2539 C 11.2793 -0.488281 40.0879 28.3203 74.8535 28.3203 Z M 74.707 -6.29883 C 71.8262 -6.29883 70.166 -8.39844 70.166 -11.4746 L 70.166 -30.5664 L 50.1953 -30.5664 C 47.168 -30.5664 44.9219 -32.2754 44.9219 -35.1562 C 44.9219 -38.1348 47.0215 -39.8926 50.1953 -39.8926 L 70.166 -39.8926 L 70.166 -59.9121 C 70.166 -63.0371 71.8262 -65.1367 74.707 -65.1367 C 77.6855 -65.1367 79.4434 -63.1348 79.4434 -59.9121 L 79.4434 -39.8926 L 99.4629 -39.8926 C 102.637 -39.8926 104.688 -38.1348 104.688 -35.1562 C 104.688 -32.2754 102.49 -30.5664 99.4629 -30.5664 L 79.4434 -30.5664 L 79.4434 -11.4746 C 79.4434 -8.30078 77.6855 -6.29883 74.707 -6.29883 Z"/>
  </g>
  <g id="Light-L" transform="matrix(1 0 0 1 1079.18 1556)">
   <path d="M 73.9258 27.3926 C 108.301 27.3926 136.621 -0.927734 136.621 -35.2539 C 136.621 -69.6289 108.252 -97.9492 73.9258 -97.9492 C 39.5508 -97.9492 11.2793 -69.6289 11.2793 -35.2539 C 11.2793 -0.927734 39.5996 27.3926 73.9258 27.3926 Z M 73.8281 -6.49414 C 71.6797 -6.49414 70.3613 -8.10547 70.3613 -10.3516 L 70.3613 -31.6895 L 48.5352 -31.6895 C 46.2891 -31.6895 44.5801 -33.0566 44.5801 -35.1562 C 44.5801 -37.3535 46.1914 -38.7695 48.5352 -38.7695 L 70.3613 -38.7695 L 70.3613 -60.6445 C 70.3613 -62.9395 71.6797 -64.502 73.8281 -64.502 C 76.0742 -64.502 77.4414 -62.9883 77.4414 -60.6445 L 77.4414 -38.7695 L 99.2676 -38.7695 C 101.611 -38.7695 103.174 -37.3535 103.174 -35.1562 C 103.174 -33.0566 101.514 -31.6895 99.2676 -31.6895 L 77.4414 -31.6895 L 77.4414 -10.3516 C 77.4414 -8.05664 76.0742 -6.49414 73.8281 -6.49414 Z"/>
  </g>
  <g id="Thin-L" transform="matrix(1 0 0 1 783.693 1556)">
   <path d="M 72.7051 26.1719 C 106.494 26.1719 134.18 -1.51367 134.18 -35.2539 C 134.18 -69.043 106.494 -96.7285 72.7051 -96.7285 C 38.9648 -96.7285 11.2793 -69.043 11.2793 -35.2539 C 11.2793 -1.51367 38.9648 26.1719 72.7051 26.1719 Z M 72.6074 -6.78711 C 71.4844 -6.78711 70.6055 -7.71484 70.6055 -8.88672 L 70.6055 -33.1055 L 46.3379 -33.1055 C 45.166 -33.1055 44.1895 -34.0332 44.1895 -35.1074 C 44.1895 -36.3281 45.0684 -37.2559 46.3379 -37.2559 L 70.6055 -37.2559 L 70.6055 -61.5723 C 70.6055 -62.793 71.4844 -63.7207 72.6074 -63.7207 C 73.9258 -63.7207 74.7559 -62.8418 74.7559 -61.5723 L 74.7559 -37.2559 L 99.0723 -37.2559 C 100.293 -37.2559 101.221 -36.3281 101.221 -35.1074 C 101.221 -34.0332 100.244 -33.1055 99.0723 -33.1055 L 74.7559 -33.1055 L 74.7559 -8.88672 C 74.7559 -7.71484 73.9258 -6.78711 72.6074 -6.78711 Z"/>
  </g>
  <g id="Ultralight-L" transform="matrix(1 0 0 1 487.616 1556)">
   <path d="M 72.1191 25.5371 C 105.566 25.5371 132.91 -1.80664 132.91 -35.2539 C 132.91 -68.75 105.566 -96.0938 72.1191 -96.0938 C 38.623 -96.0938 11.2793 -68.75 11.2793 -35.2539 C 11.2793 -1.80664 38.623 25.5371 72.1191 25.5371 Z M 72.0215 -6.93359 C 71.3867 -6.93359 70.752 -7.51953 70.752 -8.10547 L 70.752 -33.8379 L 45.2148 -33.8379 C 44.5801 -33.8379 43.9453 -34.5703 43.9453 -35.1074 C 43.9453 -35.8398 44.5312 -36.5234 45.2148 -36.5234 L 70.752 -36.5234 L 70.752 -62.0605 C 70.752 -62.7441 71.3867 -63.2812 72.0215 -63.2812 C 72.8027 -63.2812 73.3887 -62.7441 73.3887 -62.0605 L 73.3887 -36.5234 L 98.9258 -36.5234 C 99.6582 -36.5234 100.195 -35.8398 100.195 -35.1074 C 100.195 -34.5703 99.5605 -33.8379 98.9258 -33.8379 L 73.3887 -33.8379 L 73.3887 -8.10547 C 73.3887 -7.51953 72.8027 -6.93359 72.0215 -6.93359 Z"/>
  </g>
  <g id="Black-M" transform="matrix(1 0 0 1 2870.97 1126)">
   <path d="M 62.4023 18.457 C 91.9922 18.457 116.113 -5.61523 116.113 -35.2051 C 116.113 -64.7949 91.9922 -88.8672 62.4023 -88.8672 C 32.8125 -88.8672 8.74023 -64.7949 8.74023 -35.2051 C 8.74023 -5.61523 32.8125 18.457 62.4023 18.457 Z M 62.4023 -11.8164 C 58.1543 -11.8164 54.8828 -14.8926 54.8828 -18.9941 L 54.8828 -27.5879 L 45.6055 -27.5879 C 41.5039 -27.5879 38.4277 -30.8594 38.4277 -35.1562 C 38.4277 -39.4043 41.5039 -42.6758 45.6055 -42.6758 L 54.8828 -42.6758 L 54.8828 -51.2207 C 54.8828 -55.3711 58.1543 -58.4473 62.4023 -58.4473 C 66.6992 -58.4473 69.9707 -55.3711 69.9707 -51.2207 L 69.9707 -42.6758 L 79.1992 -42.6758 C 83.3496 -42.6758 86.4258 -39.4043 86.4258 -35.1562 C 86.4258 -30.8594 83.3496 -27.5879 79.1992 -27.5879 L 69.9707 -27.5879 L 69.9707 -18.9941 C 69.9707 -14.8926 66.6992 -11.8164 62.4023 -11.8164 Z"/>
  </g>
  <g id="Heavy-M" transform="matrix(1 0 0 1 2575.19 1126)">
   <path d="M 61.5234 17.5293 C 90.5273 17.5293 114.258 -6.20117 114.258 -35.2051 C 114.258 -64.2578 90.5273 -87.9883 61.4746 -87.9883 C 32.4707 -87.9883 8.74023 -64.2578 8.74023 -35.2051 C 8.74023 -6.20117 32.4707 17.5293 61.5234 17.5293 Z M 61.4746 -12.0117 C 57.5684 -12.0117 54.7363 -14.7949 54.7363 -18.6523 L 54.7363 -28.418 L 44.2383 -28.418 C 40.4297 -28.418 37.5977 -31.25 37.5977 -35.1562 C 37.5977 -39.0625 40.4297 -41.9434 44.2383 -41.9434 L 54.7363 -41.9434 L 54.7363 -51.8555 C 54.7363 -55.7129 57.5684 -58.4961 61.4746 -58.4961 C 65.3809 -58.4961 68.2617 -55.7129 68.2617 -51.8555 L 68.2617 -41.9434 L 78.7109 -41.9434 C 82.5684 -41.9434 85.3516 -39.0625 85.3516 -35.1562 C 85.3516 -31.25 82.5684 -28.418 78.7109 -28.418 L 68.2617 -28.418 L 68.2617 -18.6523 C 68.2617 -14.7949 65.3809 -12.0117 61.4746 -12.0117 Z"/>
  </g>
  <g id="Bold-M" transform="matrix(1 0 0 1 2279.5 1126)">
   <path d="M 60.498 16.5039 C 88.8672 16.5039 112.207 -6.83594 112.207 -35.2051 C 112.207 -63.623 88.8672 -86.9629 60.4492 -86.9629 C 32.0312 -86.9629 8.74023 -63.623 8.74023 -35.2051 C 8.74023 -6.83594 32.0801 16.5039 60.498 16.5039 Z M 60.4004 -12.2559 C 56.9336 -12.2559 54.541 -14.7461 54.541 -18.2129 L 54.541 -29.2969 L 42.7246 -29.2969 C 39.2578 -29.2969 36.7188 -31.6895 36.7188 -35.1562 C 36.7188 -38.6719 39.209 -41.0645 42.7246 -41.0645 L 54.541 -41.0645 L 54.541 -52.5879 C 54.541 -56.1035 56.9336 -58.5938 60.4004 -58.5938 C 63.916 -58.5938 66.3574 -56.1523 66.3574 -52.5879 L 66.3574 -41.0645 L 78.1738 -41.0645 C 81.7383 -41.0645 84.1797 -38.6719 84.1797 -35.1562 C 84.1797 -31.6895 81.6895 -29.2969 78.1738 -29.2969 L 66.3574 -29.2969 L 66.3574 -18.2129 C 66.3574 -14.6973 63.916 -12.2559 60.4004 -12.2559 Z"/>
  </g>
  <g id="Semibold-M" transform="matrix(1 0 0 1 1983.5 1126)">
   <path d="M 59.7656 15.8203 C 87.7441 15.8203 110.791 -7.27539 110.791 -35.2539 C 110.791 -63.2324 87.6953 -86.2793 59.7656 -86.2793 C 31.7871 -86.2793 8.74023 -63.2324 8.74023 -35.2539 C 8.74023 -7.27539 31.7871 15.8203 59.7656 15.8203 Z M 59.7168 -12.4023 C 56.4941 -12.4023 54.4434 -14.6973 54.4434 -17.9199 L 54.4434 -29.9316 L 41.6992 -29.9316 C 38.4277 -29.9316 36.084 -31.9824 36.084 -35.1562 C 36.084 -38.3789 38.3789 -40.4785 41.6992 -40.4785 L 54.4434 -40.4785 L 54.4434 -53.0762 C 54.4434 -56.3477 56.4941 -58.6426 59.7168 -58.6426 C 62.8906 -58.6426 65.0391 -56.3965 65.0391 -53.0762 L 65.0391 -40.4785 L 77.832 -40.4785 C 81.1523 -40.4785 83.3984 -38.3789 83.3984 -35.1562 C 83.3984 -31.9824 81.0547 -29.9316 77.832 -29.9316 L 65.0391 -29.9316 L 65.0391 -17.9199 C 65.0391 -14.6484 62.8906 -12.4023 59.7168 -12.4023 Z"/>
  </g>
  <g id="Medium-M" transform="matrix(1 0 0 1 1687.3 1126)">
   <path d="M 59.2285 15.2344 C 86.9141 15.2344 109.766 -7.61719 109.766 -35.2539 C 109.766 -62.8906 86.8652 -85.7422 59.1797 -85.7422 C 31.543 -85.7422 8.74023 -62.8906 8.74023 -35.2539 C 8.74023 -7.61719 31.5918 15.2344 59.2285 15.2344 Z M 59.1309 -12.5 C 56.1523 -12.5 54.3457 -14.6484 54.3457 -17.7246 L 54.3457 -30.4199 L 40.8691 -30.4199 C 37.8418 -30.4199 35.5957 -32.2266 35.5957 -35.1562 C 35.5957 -38.1836 37.7441 -40.0391 40.8691 -40.0391 L 54.3457 -40.0391 L 54.3457 -53.4668 C 54.3457 -56.543 56.1523 -58.6914 59.1309 -58.6914 C 62.1094 -58.6914 64.0137 -56.6406 64.0137 -53.4668 L 64.0137 -40.0391 L 77.5391 -40.0391 C 80.6641 -40.0391 82.7637 -38.1836 82.7637 -35.1562 C 82.7637 -32.2266 80.6152 -30.4199 77.5391 -30.4199 L 64.0137 -30.4199 L 64.0137 -17.7246 C 64.0137 -14.5508 62.1094 -12.5 59.1309 -12.5 Z"/>
  </g>
  <g id="Regular-M" transform="matrix(1 0 0 1 1391.3 1126)">
   <path d="M 58.5449 14.5508 C 85.791 14.5508 108.35 -8.05664 108.35 -35.2539 C 108.35 -62.5 85.7422 -85.0586 58.4961 -85.0586 C 31.2988 -85.0586 8.74023 -62.5 8.74023 -35.2539 C 8.74023 -8.05664 31.3477 14.5508 58.5449 14.5508 Z M 58.3984 -12.6953 C 55.7129 -12.6953 54.248 -14.5996 54.248 -17.4316 L 54.248 -31.0059 L 39.8438 -31.0059 C 37.0117 -31.0059 34.9609 -32.5195 34.9609 -35.2051 C 34.9609 -37.9395 36.9141 -39.502 39.8438 -39.502 L 54.248 -39.502 L 54.248 -53.9551 C 54.248 -56.8359 55.7129 -58.7402 58.3984 -58.7402 C 61.1328 -58.7402 62.7441 -56.9336 62.7441 -53.9551 L 62.7441 -39.502 L 77.1484 -39.502 C 80.127 -39.502 81.9824 -37.9395 81.9824 -35.2051 C 81.9824 -32.5195 79.9805 -31.0059 77.1484 -31.0059 L 62.7441 -31.0059 L 62.7441 -17.4316 C 62.7441 -14.502 61.1328 -12.6953 58.3984 -12.6953 Z"/>
  </g>
  <g id="Light-M" transform="matrix(1 0 0 1 1095.42 1126)">
   <path d="M 57.7148 13.7207 C 84.5215 13.7207 106.689 -8.44727 106.689 -35.2539 C 106.689 -62.1094 84.5215 -84.2285 57.666 -84.2285 C 30.8594 -84.2285 8.74023 -62.1094 8.74023 -35.2539 C 8.74023 -8.44727 30.9082 13.7207 57.7148 13.7207 Z M 57.6172 -12.8906 C 55.6152 -12.8906 54.4434 -14.3555 54.4434 -16.4551 L 54.4434 -31.9824 L 38.3789 -31.9824 C 36.2793 -31.9824 34.7168 -33.2031 34.7168 -35.1562 C 34.7168 -37.2559 36.1816 -38.4766 38.3789 -38.4766 L 54.4434 -38.4766 L 54.4434 -54.5898 C 54.4434 -56.7383 55.6152 -58.2031 57.6172 -58.2031 C 59.668 -58.2031 60.9375 -56.7871 60.9375 -54.5898 L 60.9375 -38.4766 L 77.002 -38.4766 C 79.1992 -38.4766 80.6641 -37.2559 80.6641 -35.1562 C 80.6641 -33.2031 79.1016 -31.9824 77.002 -31.9824 L 60.9375 -31.9824 L 60.9375 -16.4551 C 60.9375 -14.2578 59.668 -12.8906 57.6172 -12.8906 Z"/>
  </g>
  <g id="Thin-M" transform="matrix(1 0 0 1 799.806 1126)">
   <path d="M 56.6406 12.5977 C 82.9102 12.5977 104.492 -8.98438 104.492 -35.2539 C 104.492 -61.5723 82.9102 -83.1543 56.5918 -83.1543 C 30.3223 -83.1543 8.74023 -61.5723 8.74023 -35.2539 C 8.74023 -8.98438 30.3223 12.5977 56.6406 12.5977 Z M 56.543 -13.1348 C 55.4199 -13.1348 54.6875 -13.9648 54.6875 -15.1367 L 54.6875 -33.3008 L 36.377 -33.3008 C 35.2539 -33.3008 34.3262 -34.082 34.3262 -35.1562 C 34.3262 -36.3281 35.1562 -37.1582 36.377 -37.1582 L 54.6875 -37.1582 L 54.6875 -55.4199 C 54.6875 -56.6406 55.4199 -57.4707 56.543 -57.4707 C 57.7637 -57.4707 58.5449 -56.6406 58.5449 -55.4199 L 58.5449 -37.1582 L 76.8066 -37.1582 C 78.0273 -37.1582 78.8574 -36.3281 78.8574 -35.1562 C 78.8574 -34.082 77.9297 -33.3008 76.8066 -33.3008 L 58.5449 -33.3008 L 58.5449 -15.1367 C 58.5449 -13.9648 57.7637 -13.1348 56.543 -13.1348 Z"/>
  </g>
  <g id="Ultralight-M" transform="matrix(1 0 0 1 503.656 1126)">
   <path d="M 56.0547 12.0605 C 82.0801 12.0605 103.369 -9.22852 103.369 -35.2539 C 103.369 -61.2793 82.0801 -82.5684 56.0547 -82.5684 C 30.0293 -82.5684 8.74023 -61.2793 8.74023 -35.2539 C 8.74023 -9.22852 30.0293 12.0605 56.0547 12.0605 Z M 56.0059 -13.2812 C 55.3223 -13.2812 54.7852 -13.8184 54.7852 -14.4531 L 54.7852 -33.9355 L 35.4004 -33.9355 C 34.7168 -33.9355 34.1309 -34.5703 34.1309 -35.1562 C 34.1309 -35.8398 34.668 -36.4746 35.4004 -36.4746 L 54.7852 -36.4746 L 54.7852 -55.8594 C 54.7852 -56.5918 55.3223 -57.1289 56.0059 -57.1289 C 56.7383 -57.1289 57.3242 -56.5918 57.3242 -55.8594 L 57.3242 -36.4746 L 76.709 -36.4746 C 77.4414 -36.4746 77.9785 -35.8398 77.9785 -35.1562 C 77.9785 -34.5703 77.3438 -33.9355 76.709 -33.9355 L 57.3242 -33.9355 L 57.3242 -14.4531 C 57.3242 -13.8184 56.7383 -13.2812 56.0059 -13.2812 Z"/>
  </g>
  <g id="Black-S" transform="matrix(1 0 0 1 2884.57 696)">
   <path d="M 48.8281 6.78711 C 71.9727 6.78711 90.8203 -12.0605 90.8203 -35.2051 C 90.8203 -58.3496 71.9727 -77.1973 48.8281 -77.1973 C 25.6836 -77.1973 6.83594 -58.3496 6.83594 -35.2051 C 6.83594 -12.0605 25.6836 6.78711 48.8281 6.78711 Z M 48.8281 -16.8945 C 45.5078 -16.8945 42.9688 -19.2871 42.9688 -22.5098 L 42.9688 -29.2969 L 35.6445 -29.2969 C 32.4219 -29.2969 30.0293 -31.8359 30.0293 -35.1562 C 30.0293 -38.4766 32.4219 -41.0156 35.6445 -41.0156 L 42.9688 -41.0156 L 42.9688 -47.8027 C 42.9688 -51.0254 45.5078 -53.418 48.8281 -53.418 C 52.1484 -53.418 54.6875 -51.0254 54.6875 -47.8027 L 54.6875 -41.0156 L 62.0117 -41.0156 C 65.2344 -41.0156 67.627 -38.4766 67.627 -35.1562 C 67.627 -31.8359 65.2344 -29.2969 62.0117 -29.2969 L 54.6875 -29.2969 L 54.6875 -22.5098 C 54.6875 -19.2871 52.1484 -16.8945 48.8281 -16.8945 Z"/>
  </g>
  <g id="Heavy-S" transform="matrix(1 0 0 1 2588.47 696)">
   <path d="M 48.2422 6.15234 C 70.9961 6.15234 89.5996 -12.4512 89.5996 -35.2051 C 89.5996 -57.959 70.9961 -76.6113 48.1934 -76.6113 C 25.4395 -76.6113 6.83594 -57.959 6.83594 -35.2051 C 6.83594 -12.4512 25.4395 6.15234 48.2422 6.15234 Z M 48.1934 -17.041 C 45.0684 -17.041 42.8223 -19.2871 42.8223 -22.3145 L 42.8223 -29.7852 L 34.7656 -29.7852 C 31.6895 -29.7852 29.4434 -32.0801 29.4434 -35.1562 C 29.4434 -38.2812 31.6895 -40.5762 34.7656 -40.5762 L 42.8223 -40.5762 L 42.8223 -48.2422 C 42.8223 -51.3184 45.0684 -53.5156 48.1934 -53.5156 C 51.3184 -53.5156 53.5645 -51.3184 53.5645 -48.2422 L 53.5645 -40.5762 L 61.6699 -40.5762 C 64.7461 -40.5762 66.9434 -38.2812 66.9434 -35.1562 C 66.9434 -32.0801 64.6973 -29.7852 61.6699 -29.7852 L 53.5645 -29.7852 L 53.5645 -22.3145 C 53.5645 -19.2383 51.3184 -17.041 48.1934 -17.041 Z"/>
  </g>
  <g id="Bold-S" transform="matrix(1 0 0 1 2292.44 696)">
   <path d="M 47.5586 5.46875 C 69.873 5.46875 88.2324 -12.8906 88.2324 -35.2539 C 88.2324 -57.5684 69.873 -75.9277 47.5098 -75.9277 C 25.1953 -75.9277 6.83594 -57.5684 6.83594 -35.2539 C 6.83594 -12.8906 25.1953 5.46875 47.5586 5.46875 Z M 47.4609 -17.1875 C 44.5801 -17.1875 42.6758 -19.2383 42.6758 -22.1191 L 42.6758 -30.3711 L 33.7891 -30.3711 C 30.8594 -30.3711 28.7598 -32.3242 28.7598 -35.1562 C 28.7598 -38.0859 30.8105 -40.0391 33.7891 -40.0391 L 42.6758 -40.0391 L 42.6758 -48.7305 C 42.6758 -51.6113 44.5801 -53.6621 47.4609 -53.6621 C 50.3418 -53.6621 52.3438 -51.6602 52.3438 -48.7305 L 52.3438 -40.0391 L 61.2305 -40.0391 C 64.209 -40.0391 66.2109 -38.0859 66.2109 -35.1562 C 66.2109 -32.3242 64.1602 -30.3711 61.2305 -30.3711 L 52.3438 -30.3711 L 52.3438 -22.1191 C 52.3438 -19.1895 50.3418 -17.1875 47.4609 -17.1875 Z"/>
  </g>
  <g id="Semibold-S" transform="matrix(1 0 0 1 1996.2 696)">
   <path d="M 47.0703 4.98047 C 69.0918 4.98047 87.3047 -13.1836 87.3047 -35.2539 C 87.3047 -57.2754 69.0918 -75.4883 47.0215 -75.4883 C 25 -75.4883 6.83594 -57.2754 6.83594 -35.2539 C 6.83594 -13.1836 25.0488 4.98047 47.0703 4.98047 Z M 46.9727 -17.2852 C 44.2383 -17.2852 42.5293 -19.2383 42.5293 -22.0215 L 42.5293 -30.7617 L 33.1055 -30.7617 C 30.3223 -30.7617 28.3203 -32.4707 28.3203 -35.2051 C 28.3203 -37.9395 30.2246 -39.6973 33.1055 -39.6973 L 42.5293 -39.6973 L 42.5293 -49.0234 C 42.5293 -51.8066 44.2383 -53.7598 46.9727 -53.7598 C 49.707 -53.7598 51.4648 -51.8555 51.4648 -49.0234 L 51.4648 -39.6973 L 60.9375 -39.6973 C 63.8184 -39.6973 65.7227 -37.9395 65.7227 -35.2051 C 65.7227 -32.4707 63.7207 -30.7617 60.9375 -30.7617 L 51.4648 -30.7617 L 51.4648 -22.0215 C 51.4648 -19.1406 49.707 -17.2852 46.9727 -17.2852 Z"/>
  </g>
  <g id="Medium-S" transform="matrix(1 0 0 1 1699.83 696)">
   <path d="M 46.7285 4.63867 C 68.5547 4.63867 86.6211 -13.4277 86.6211 -35.2539 C 86.6211 -57.0801 68.5059 -75.1465 46.6797 -75.1465 C 24.8535 -75.1465 6.83594 -57.0801 6.83594 -35.2539 C 6.83594 -13.4277 24.9023 4.63867 46.7285 4.63867 Z M 46.582 -17.3828 C 43.9941 -17.3828 42.4805 -19.1895 42.4805 -21.9238 L 42.4805 -31.0547 L 32.5684 -31.0547 C 29.8828 -31.0547 27.9297 -32.6172 27.9297 -35.2051 C 27.9297 -37.8418 29.7852 -39.4043 32.5684 -39.4043 L 42.4805 -39.4043 L 42.4805 -49.2676 C 42.4805 -51.9531 43.9941 -53.8086 46.582 -53.8086 C 49.2188 -53.8086 50.8301 -52.0508 50.8301 -49.2676 L 50.8301 -39.4043 L 60.7422 -39.4043 C 63.5254 -39.4043 65.332 -37.8418 65.332 -35.2051 C 65.332 -32.6172 63.4277 -31.0547 60.7422 -31.0547 L 50.8301 -31.0547 L 50.8301 -21.9238 C 50.8301 -19.1406 49.2188 -17.3828 46.582 -17.3828 Z"/>
  </g>
  <g id="Regular-S" transform="matrix(1 0 0 1 1403.58 696)">
   <path d="M 46.2402 4.15039 C 67.7734 4.15039 85.6934 -13.7207 85.6934 -35.2539 C 85.6934 -56.7871 67.7246 -74.6582 46.1914 -74.6582 C 24.707 -74.6582 6.83594 -56.7871 6.83594 -35.2539 C 6.83594 -13.7207 24.7559 4.15039 46.2402 4.15039 Z M 46.0938 -17.4805 C 43.7012 -17.4805 42.3828 -19.1895 42.3828 -21.7773 L 42.3828 -31.4453 L 31.8848 -31.4453 C 29.3457 -31.4453 27.4902 -32.7637 27.4902 -35.2051 C 27.4902 -37.6953 29.248 -39.0625 31.8848 -39.0625 L 42.3828 -39.0625 L 42.3828 -49.6094 C 42.3828 -52.1973 43.7012 -53.9062 46.0938 -53.9062 C 48.5352 -53.9062 49.9512 -52.2949 49.9512 -49.6094 L 49.9512 -39.0625 L 60.4492 -39.0625 C 63.1348 -39.0625 64.8438 -37.6953 64.8438 -35.2051 C 64.8438 -32.7637 63.0371 -31.4453 60.4492 -31.4453 L 49.9512 -31.4453 L 49.9512 -21.7773 C 49.9512 -19.0918 48.5352 -17.4805 46.0938 -17.4805 Z"/>
  </g>
  <g id="Light-S" transform="matrix(1 0 0 1 1107.6 696)">
   <path d="M 45.5078 3.41797 C 66.6992 3.41797 84.2285 -14.0625 84.2285 -35.2539 C 84.2285 -56.4453 66.6504 -73.9258 45.5078 -73.9258 C 24.3164 -73.9258 6.83594 -56.4453 6.83594 -35.2539 C 6.83594 -14.0625 24.3652 3.41797 45.5078 3.41797 Z M 45.4102 -17.627 C 43.5547 -17.627 42.5293 -18.9453 42.5293 -20.8984 L 42.5293 -32.3242 L 30.6152 -32.3242 C 28.6621 -32.3242 27.2461 -33.3496 27.2461 -35.2051 C 27.2461 -37.0605 28.5645 -38.1348 30.6152 -38.1348 L 42.5293 -38.1348 L 42.5293 -50.1465 C 42.5293 -52.0996 43.5547 -53.418 45.4102 -53.418 C 47.2656 -53.418 48.3887 -52.1973 48.3887 -50.1465 L 48.3887 -38.1348 L 60.3516 -38.1348 C 62.3535 -38.1348 63.6719 -37.0605 63.6719 -35.2051 C 63.6719 -33.3496 62.3047 -32.3242 60.3516 -32.3242 L 48.3887 -32.3242 L 48.3887 -20.8984 C 48.3887 -18.8965 47.2656 -17.627 45.4102 -17.627 Z"/>
  </g>
  <g id="Thin-S" transform="matrix(1 0 0 1 811.867 696)">
   <path d="M 44.5801 2.49023 C 65.2832 2.49023 82.2754 -14.5508 82.2754 -35.2539 C 82.2754 -55.957 65.2344 -72.998 44.5312 -72.998 C 23.8281 -72.998 6.83594 -55.957 6.83594 -35.2539 C 6.83594 -14.5508 23.877 2.49023 44.5801 2.49023 Z M 44.4824 -17.8711 C 43.457 -17.8711 42.7734 -18.6523 42.7734 -19.7266 L 42.7734 -33.4473 L 28.8574 -33.4473 C 27.7832 -33.4473 26.9531 -34.1797 26.9531 -35.1562 C 26.9531 -36.2793 27.7344 -36.9629 28.8574 -36.9629 L 42.7734 -36.9629 L 42.7734 -50.8789 C 42.7734 -52.002 43.457 -52.7832 44.4824 -52.7832 C 45.6055 -52.7832 46.2891 -52.0508 46.2891 -50.8789 L 46.2891 -36.9629 L 60.2051 -36.9629 C 61.3281 -36.9629 62.1094 -36.2793 62.1094 -35.1562 C 62.1094 -34.1797 61.2793 -33.4473 60.2051 -33.4473 L 46.2891 -33.4473 L 46.2891 -19.7266 C 46.2891 -18.6523 45.6055 -17.8711 44.4824 -17.8711 Z"/>
  </g>
  <g id="Ultralight-S" transform="matrix(1 0 0 1 515.644 696)">
   <path d="M 44.043 1.95312 C 64.502 1.95312 81.2988 -14.7949 81.2988 -35.2539 C 81.2988 -55.7129 64.502 -72.4609 44.043 -72.4609 C 23.584 -72.4609 6.83594 -55.7129 6.83594 -35.2539 C 6.83594 -14.7949 23.584 1.95312 44.043 1.95312 Z M 43.9941 -17.9688 C 43.3594 -17.9688 42.8711 -18.5059 42.8711 -19.1406 L 42.8711 -34.0332 L 27.9785 -34.0332 C 27.3438 -34.0332 26.8066 -34.5703 26.8066 -35.1562 C 26.8066 -35.8398 27.2949 -36.377 27.9785 -36.377 L 42.8711 -36.377 L 42.8711 -51.2695 C 42.8711 -51.9531 43.3594 -52.4902 43.9941 -52.4902 C 44.7266 -52.4902 45.2148 -51.9531 45.2148 -51.2695 L 45.2148 -36.377 L 60.1074 -36.377 C 60.791 -36.377 61.3281 -35.8398 61.3281 -35.1562 C 61.3281 -34.5703 60.7422 -34.0332 60.1074 -34.0332 L 45.2148 -34.0332 L 45.2148 -19.1406 C 45.2148 -18.5059 44.7266 -17.9688 43.9941 -17.9688 Z"/>
  </g>
 </g>
</svg>
