<?xml version="1.0" encoding="UTF-8"?>
<!--Generator: Apple Native CoreSVG 129-->
<!DOCTYPE svg
PUBLIC "-//W3C//DTD SVG 1.1//EN"
       "http://www.w3.org/Graphics/SVG/1.1/DTD/svg11.dtd">
<svg version="1.1" xmlns="http://www.w3.org/2000/svg" xmlns:xlink="http://www.w3.org/1999/xlink" width="3300" height="2200">
 <!--glyph: "uni10005F.medium", point size: 100.000000, font version: "Version 16.0d9e1", template writer version: "8"-->
 <g id="Notes">
  <rect height="2200" id="artboard" style="fill:white;opacity:1" width="3300" x="0" y="0"/>
  <line id="" style="fill:none;stroke:black;opacity:1;stroke-width:0.5;" x1="263" x2="3036" y1="292" y2="292"/>
  <text style="stroke:none;fill:black;font-family:-apple-system,&quot;SF Pro Display&quot;,&quot;SF Pro Text&quot;,Helvetica,sans-serif;font-weight:bold;" transform="matrix(1 0 0 1 263 322)">Weight/Scale Variations</text>
  <text style="stroke:none;fill:black;font-family:-apple-system,&quot;SF Pro Display&quot;,&quot;SF Pro Text&quot;,Helvetica,sans-serif;text-anchor:middle;" transform="matrix(1 0 0 1 559.711 322)">Ultralight</text>
  <text style="stroke:none;fill:black;font-family:-apple-system,&quot;SF Pro Display&quot;,&quot;SF Pro Text&quot;,Helvetica,sans-serif;text-anchor:middle;" transform="matrix(1 0 0 1 856.422 322)">Thin</text>
  <text style="stroke:none;fill:black;font-family:-apple-system,&quot;SF Pro Display&quot;,&quot;SF Pro Text&quot;,Helvetica,sans-serif;text-anchor:middle;" transform="matrix(1 0 0 1 1153.13 322)">Light</text>
  <text style="stroke:none;fill:black;font-family:-apple-system,&quot;SF Pro Display&quot;,&quot;SF Pro Text&quot;,Helvetica,sans-serif;text-anchor:middle;" transform="matrix(1 0 0 1 1449.84 322)">Regular</text>
  <text style="stroke:none;fill:black;font-family:-apple-system,&quot;SF Pro Display&quot;,&quot;SF Pro Text&quot;,Helvetica,sans-serif;text-anchor:middle;" transform="matrix(1 0 0 1 1746.56 322)">Medium</text>
  <text style="stroke:none;fill:black;font-family:-apple-system,&quot;SF Pro Display&quot;,&quot;SF Pro Text&quot;,Helvetica,sans-serif;text-anchor:middle;" transform="matrix(1 0 0 1 2043.27 322)">Semibold</text>
  <text style="stroke:none;fill:black;font-family:-apple-system,&quot;SF Pro Display&quot;,&quot;SF Pro Text&quot;,Helvetica,sans-serif;text-anchor:middle;" transform="matrix(1 0 0 1 2339.98 322)">Bold</text>
  <text style="stroke:none;fill:black;font-family:-apple-system,&quot;SF Pro Display&quot;,&quot;SF Pro Text&quot;,Helvetica,sans-serif;text-anchor:middle;" transform="matrix(1 0 0 1 2636.69 322)">Heavy</text>
  <text style="stroke:none;fill:black;font-family:-apple-system,&quot;SF Pro Display&quot;,&quot;SF Pro Text&quot;,Helvetica,sans-serif;text-anchor:middle;" transform="matrix(1 0 0 1 2933.4 322)">Black</text>
  <line id="" style="fill:none;stroke:black;opacity:1;stroke-width:0.5;" x1="263" x2="3036" y1="1903" y2="1903"/>
  <g id="" transform="matrix(1 0 0 1 263 1933)">
   <path d="M 9.24805 0.830078 C 13.5547 0.830078 17.1387 -2.74414 17.1387 -7.05078 C 17.1387 -11.3574 13.5449 -14.9316 9.23828 -14.9316 C 4.94141 -14.9316 1.36719 -11.3574 1.36719 -7.05078 C 1.36719 -2.74414 4.95117 0.830078 9.24805 0.830078 Z M 9.24805 -0.654297 C 5.70312 -0.654297 2.87109 -3.49609 2.87109 -7.05078 C 2.87109 -10.6055 5.69336 -13.4473 9.23828 -13.4473 C 12.793 -13.4473 15.6348 -10.6055 15.6445 -7.05078 C 15.6543 -3.49609 12.8027 -0.654297 9.24805 -0.654297 Z M 9.22852 -3.62305 C 9.69727 -3.62305 9.9707 -3.93555 9.9707 -4.45312 L 9.9707 -6.31836 L 12.002 -6.31836 C 12.5 -6.31836 12.832 -6.57227 12.832 -7.04102 C 12.832 -7.51953 12.5195 -7.7832 12.002 -7.7832 L 9.9707 -7.7832 L 9.9707 -9.81445 C 9.9707 -10.332 9.69727 -10.6543 9.22852 -10.6543 C 8.75977 -10.6543 8.50586 -10.3125 8.50586 -9.81445 L 8.50586 -7.7832 L 6.49414 -7.7832 C 5.97656 -7.7832 5.64453 -7.51953 5.64453 -7.04102 C 5.64453 -6.57227 5.99609 -6.31836 6.49414 -6.31836 L 8.50586 -6.31836 L 8.50586 -4.45312 C 8.50586 -3.95508 8.75977 -3.62305 9.22852 -3.62305 Z"/>
  </g>
  <g id="" transform="matrix(1 0 0 1 281.506 1933)">
   <path d="M 11.709 2.91016 C 17.1582 2.91016 21.6699 -1.61133 21.6699 -7.05078 C 21.6699 -12.5 17.1484 -17.0117 11.6992 -17.0117 C 6.25977 -17.0117 1.74805 -12.5 1.74805 -7.05078 C 1.74805 -1.61133 6.26953 2.91016 11.709 2.91016 Z M 11.709 1.25 C 7.09961 1.25 3.41797 -2.44141 3.41797 -7.05078 C 3.41797 -11.6602 7.08984 -15.3516 11.6992 -15.3516 C 16.3086 -15.3516 20 -11.6602 20.0098 -7.05078 C 20.0195 -2.44141 16.3184 1.25 11.709 1.25 Z M 11.6797 -2.66602 C 12.207 -2.66602 12.5098 -3.01758 12.5098 -3.59375 L 12.5098 -6.23047 L 15.3223 -6.23047 C 15.8691 -6.23047 16.25 -6.51367 16.25 -7.03125 C 16.25 -7.55859 15.8887 -7.86133 15.3223 -7.86133 L 12.5098 -7.86133 L 12.5098 -10.6836 C 12.5098 -11.25 12.207 -11.6113 11.6797 -11.6113 C 11.1621 -11.6113 10.8789 -11.2305 10.8789 -10.6836 L 10.8789 -7.86133 L 8.07617 -7.86133 C 7.50977 -7.86133 7.13867 -7.55859 7.13867 -7.03125 C 7.13867 -6.51367 7.5293 -6.23047 8.07617 -6.23047 L 10.8789 -6.23047 L 10.8789 -3.59375 C 10.8789 -3.03711 11.1621 -2.66602 11.6797 -2.66602 Z"/>
  </g>
  <g id="" transform="matrix(1 0 0 1 304.924 1933)">
   <path d="M 14.9707 5.66406 C 21.9336 5.66406 27.6953 -0.0976562 27.6953 -7.05078 C 27.6953 -14.0137 21.9238 -19.7754 14.9609 -19.7754 C 8.00781 -19.7754 2.25586 -14.0137 2.25586 -7.05078 C 2.25586 -0.0976562 8.01758 5.66406 14.9707 5.66406 Z M 14.9707 3.84766 C 8.93555 3.84766 4.08203 -1.01562 4.08203 -7.05078 C 4.08203 -13.0957 8.92578 -17.9492 14.9609 -17.9492 C 21.0059 -17.9492 25.8594 -13.0957 25.8691 -7.05078 C 25.8789 -1.01562 21.0156 3.84766 14.9707 3.84766 Z M 14.9414 -1.38672 C 15.5176 -1.38672 15.8594 -1.77734 15.8594 -2.38281 L 15.8594 -6.13281 L 19.7754 -6.13281 C 20.3711 -6.13281 20.7812 -6.46484 20.7812 -7.02148 C 20.7812 -7.59766 20.3906 -7.93945 19.7754 -7.93945 L 15.8594 -7.93945 L 15.8594 -11.8652 C 15.8594 -12.4805 15.5176 -12.8711 14.9414 -12.8711 C 14.375 -12.8711 14.0527 -12.4609 14.0527 -11.8652 L 14.0527 -7.93945 L 10.1465 -7.93945 C 9.53125 -7.93945 9.13086 -7.59766 9.13086 -7.02148 C 9.13086 -6.46484 9.55078 -6.13281 10.1465 -6.13281 L 14.0527 -6.13281 L 14.0527 -2.38281 C 14.0527 -1.79688 14.375 -1.38672 14.9414 -1.38672 Z"/>
  </g>
  <text style="stroke:none;fill:black;font-family:-apple-system,&quot;SF Pro Display&quot;,&quot;SF Pro Text&quot;,Helvetica,sans-serif;font-weight:bold;" transform="matrix(1 0 0 1 263 1953)">Design Variations</text>
  <text style="stroke:none;fill:black;font-family:-apple-system,&quot;SF Pro Display&quot;,&quot;SF Pro Text&quot;,Helvetica,sans-serif;" transform="matrix(1 0 0 1 263 1971)">Symbols are supported in up to nine weights and three scales.</text>
  <text style="stroke:none;fill:black;font-family:-apple-system,&quot;SF Pro Display&quot;,&quot;SF Pro Text&quot;,Helvetica,sans-serif;" transform="matrix(1 0 0 1 263 1989)">For optimal layout with text and other symbols, vertically align</text>
  <text style="stroke:none;fill:black;font-family:-apple-system,&quot;SF Pro Display&quot;,&quot;SF Pro Text&quot;,Helvetica,sans-serif;" transform="matrix(1 0 0 1 263 2007)">symbols with the adjacent text.</text>
  <line id="" style="fill:none;stroke:#00AEEF;stroke-width:0.5;opacity:1.0;" x1="776" x2="776" y1="1919" y2="1933"/>
  <g id="" transform="matrix(1 0 0 1 776 1933)">
   <path d="M 3.31055 0.126953 C 3.82812 0.126953 4.08203 -0.0683594 4.26758 -0.605469 L 5.52734 -4.0625 L 11.2891 -4.0625 L 12.5488 -0.605469 C 12.7344 -0.0683594 12.9883 0.126953 13.4961 0.126953 C 14.0137 0.126953 14.3457 -0.185547 14.3457 -0.673828 C 14.3457 -0.839844 14.3164 -0.986328 14.2383 -1.20117 L 9.6582 -13.3887 C 9.43359 -13.9941 9.0332 -14.2871 8.4082 -14.2871 C 7.80273 -14.2871 7.39258 -13.9941 7.17773 -13.3984 L 2.59766 -1.19141 C 2.51953 -0.976562 2.49023 -0.830078 2.49023 -0.664062 C 2.49023 -0.175781 2.80273 0.126953 3.31055 0.126953 Z M 6.00586 -5.53711 L 8.37891 -12.1094 L 8.42773 -12.1094 L 10.8008 -5.53711 Z"/>
  </g>
  <line id="" style="fill:none;stroke:#00AEEF;stroke-width:0.5;opacity:1.0;" x1="792.836" x2="792.836" y1="1919" y2="1933"/>
  <text style="stroke:none;fill:black;font-family:-apple-system,&quot;SF Pro Display&quot;,&quot;SF Pro Text&quot;,Helvetica,sans-serif;font-weight:bold;" transform="matrix(1 0 0 1 776 1953)">Margins</text>
  <text style="stroke:none;fill:black;font-family:-apple-system,&quot;SF Pro Display&quot;,&quot;SF Pro Text&quot;,Helvetica,sans-serif;" transform="matrix(1 0 0 1 776 1971)">Leading and trailing margins on the left and right side of each symbol</text>
  <text style="stroke:none;fill:black;font-family:-apple-system,&quot;SF Pro Display&quot;,&quot;SF Pro Text&quot;,Helvetica,sans-serif;" transform="matrix(1 0 0 1 776 1989)">can be adjusted by modifying the x-location of the margin guidelines.</text>
  <text style="stroke:none;fill:black;font-family:-apple-system,&quot;SF Pro Display&quot;,&quot;SF Pro Text&quot;,Helvetica,sans-serif;" transform="matrix(1 0 0 1 776 2007)">Modifications are automatically applied proportionally to all</text>
  <text style="stroke:none;fill:black;font-family:-apple-system,&quot;SF Pro Display&quot;,&quot;SF Pro Text&quot;,Helvetica,sans-serif;" transform="matrix(1 0 0 1 776 2025)">scales and weights.</text>
  <g id="" transform="matrix(1 0 0 1 1289 1933)">
   <path d="M 2.8418 1.86523 L 4.54102 3.57422 C 5.40039 4.44336 6.38672 4.38477 7.31445 3.35938 L 17.4902 -7.85156 C 17.7539 -7.76367 18.0273 -7.7832 18.3398 -7.8418 L 19.4043 -8.03711 L 20.0684 -7.36328 L 20.0293 -6.80664 C 19.9902 -6.30859 20.1172 -5.92773 20.6055 -5.44922 L 21.3672 -4.70703 C 21.8457 -4.22852 22.4609 -4.19922 22.9297 -4.66797 L 25.8398 -7.58789 C 26.3086 -8.05664 26.2891 -8.65234 25.8105 -9.13086 L 25.0391 -9.89258 C 24.5605 -10.3711 24.1895 -10.5273 23.7109 -10.4883 L 23.1348 -10.4395 L 22.4902 -11.0742 L 22.7344 -12.1973 C 22.8613 -12.7637 22.7051 -13.2031 22.1191 -13.7891 L 19.9219 -15.9766 C 16.582 -19.2969 12.1484 -19.2188 9.25781 -16.3281 C 8.83789 -15.918 8.80859 -15.3418 9.04297 -14.9512 C 9.27734 -14.5898 9.73633 -14.3555 10.3809 -14.5215 C 11.8457 -14.8633 13.3691 -14.9219 14.7949 -13.9844 L 14.209 -12.5293 C 14.0137 -12.0508 13.9844 -11.6504 14.1113 -11.2891 L 3.04688 -0.898438 C 2.06055 0.0195312 1.98242 0.996094 2.8418 1.86523 Z M 10.752 -15.957 C 13.1836 -17.7344 16.4746 -17.4316 18.7012 -15.2051 L 21.1328 -12.793 C 21.3672 -12.5586 21.4062 -12.373 21.3379 -12.0312 L 21.0156 -10.5469 L 22.5195 -9.0625 L 23.5059 -9.12109 C 23.7598 -9.13086 23.8379 -9.11133 24.0332 -8.91602 L 24.6094 -8.33984 L 22.168 -5.89844 L 21.5918 -6.47461 C 21.3965 -6.66992 21.3672 -6.74805 21.377 -7.01172 L 21.4453 -7.98828 L 19.9512 -9.47266 L 18.4277 -9.21875 C 18.1055 -9.15039 17.959 -9.17969 17.7148 -9.41406 L 15.7129 -11.416 C 15.459 -11.6504 15.4297 -11.8164 15.5859 -12.1875 L 16.4648 -14.2773 C 14.9023 -15.7324 12.8711 -16.3574 10.8398 -15.7617 C 10.6836 -15.7227 10.625 -15.8496 10.752 -15.957 Z M 5.27344 2.30469 L 4.10156 1.14258 C 3.63281 0.683594 3.74023 0.341797 4.14062 -0.0195312 L 14.9512 -10.1953 L 16.416 -8.71094 L 6.42578 2.27539 C 6.07422 2.67578 5.74219 2.77344 5.27344 2.30469 Z"/>
  </g>
  <text style="stroke:none;fill:black;font-family:-apple-system,&quot;SF Pro Display&quot;,&quot;SF Pro Text&quot;,Helvetica,sans-serif;font-weight:bold;" transform="matrix(1 0 0 1 1289 1953)">Exporting</text>
  <text style="stroke:none;fill:black;font-family:-apple-system,&quot;SF Pro Display&quot;,&quot;SF Pro Text&quot;,Helvetica,sans-serif;" transform="matrix(1 0 0 1 1289 1971)">Symbols should be outlined when exporting to ensure the</text>
  <text style="stroke:none;fill:black;font-family:-apple-system,&quot;SF Pro Display&quot;,&quot;SF Pro Text&quot;,Helvetica,sans-serif;" transform="matrix(1 0 0 1 1289 1989)">design is preserved when submitting to Xcode.</text>
  <text id="template-version" style="stroke:none;fill:black;font-family:-apple-system,&quot;SF Pro Display&quot;,&quot;SF Pro Text&quot;,Helvetica,sans-serif;text-anchor:end;" transform="matrix(1 0 0 1 3036 1933)">Template v.2.0</text>
  <text style="stroke:none;fill:black;font-family:-apple-system,&quot;SF Pro Display&quot;,&quot;SF Pro Text&quot;,Helvetica,sans-serif;text-anchor:end;" transform="matrix(1 0 0 1 3036 1951)">Requires Xcode 12 or greater</text>
  <text style="stroke:none;fill:black;font-family:-apple-system,&quot;SF Pro Display&quot;,&quot;SF Pro Text&quot;,Helvetica,sans-serif;text-anchor:end;" transform="matrix(1 0 0 1 3036 1969)">Generated from exclamationmark.circle.fill</text>
  <text style="stroke:none;fill:black;font-family:-apple-system,&quot;SF Pro Display&quot;,&quot;SF Pro Text&quot;,Helvetica,sans-serif;text-anchor:end;" transform="matrix(1 0 0 1 3036 1987)">Typeset at 100 points</text>
  <text style="stroke:none;fill:black;font-family:-apple-system,&quot;SF Pro Display&quot;,&quot;SF Pro Text&quot;,Helvetica,sans-serif;" transform="matrix(1 0 0 1 263 726)">Small</text>
  <text style="stroke:none;fill:black;font-family:-apple-system,&quot;SF Pro Display&quot;,&quot;SF Pro Text&quot;,Helvetica,sans-serif;" transform="matrix(1 0 0 1 263 1156)">Medium</text>
  <text style="stroke:none;fill:black;font-family:-apple-system,&quot;SF Pro Display&quot;,&quot;SF Pro Text&quot;,Helvetica,sans-serif;" transform="matrix(1 0 0 1 263 1586)">Large</text>
 </g>
 <g id="Guides">
  <g id="H-reference" style="fill:#27AAE1;stroke:none;" transform="matrix(1 0 0 1 339 696)">
   <path d="M 0.976562 0 L 3.66211 0 L 12.9883 -24.4629 L 45.7031 -24.4629 L 55.0781 0 L 57.7148 0 L 30.6152 -70.459 L 28.125 -70.459 Z M 29.2969 -67.1387 L 29.3945 -67.1387 L 44.873 -26.709 L 13.8672 -26.709 Z"/>
  </g>
  <line id="Baseline-S" style="fill:none;stroke:#27AAE1;opacity:1;stroke-width:0.5;" x1="263" x2="3036" y1="696" y2="696"/>
  <line id="Capline-S" style="fill:none;stroke:#27AAE1;opacity:1;stroke-width:0.5;" x1="263" x2="3036" y1="625.541" y2="625.541"/>
  <g id="H-reference" style="fill:#27AAE1;stroke:none;" transform="matrix(1 0 0 1 339 1126)">
   <path d="M 0.976562 0 L 3.66211 0 L 12.9883 -24.4629 L 45.7031 -24.4629 L 55.0781 0 L 57.7148 0 L 30.6152 -70.459 L 28.125 -70.459 Z M 29.2969 -67.1387 L 29.3945 -67.1387 L 44.873 -26.709 L 13.8672 -26.709 Z"/>
  </g>
  <line id="Baseline-M" style="fill:none;stroke:#27AAE1;opacity:1;stroke-width:0.5;" x1="263" x2="3036" y1="1126" y2="1126"/>
  <line id="Capline-M" style="fill:none;stroke:#27AAE1;opacity:1;stroke-width:0.5;" x1="263" x2="3036" y1="1055.54" y2="1055.54"/>
  <g id="H-reference" style="fill:#27AAE1;stroke:none;" transform="matrix(1 0 0 1 339 1556)">
   <path d="M 0.976562 0 L 3.66211 0 L 12.9883 -24.4629 L 45.7031 -24.4629 L 55.0781 0 L 57.7148 0 L 30.6152 -70.459 L 28.125 -70.459 Z M 29.2969 -67.1387 L 29.3945 -67.1387 L 44.873 -26.709 L 13.8672 -26.709 Z"/>
  </g>
  <line id="Baseline-L" style="fill:none;stroke:#27AAE1;opacity:1;stroke-width:0.5;" x1="263" x2="3036" y1="1556" y2="1556"/>
  <line id="Capline-L" style="fill:none;stroke:#27AAE1;opacity:1;stroke-width:0.5;" x1="263" x2="3036" y1="1485.54" y2="1485.54"/>
  <line id="left-margin" style="fill:none;stroke:#00AEEF;stroke-width:0.5;opacity:1.0;" x1="1391.3" x2="1391.3" y1="1030.79" y2="1150.12"/>
  <line id="right-margin" style="fill:none;stroke:#00AEEF;stroke-width:0.5;opacity:1.0;" x1="1508.39" x2="1508.39" y1="1030.79" y2="1150.12"/>
 </g>
 <g id="Symbols">
  <g id="Black-L" transform="matrix(1 0 0 1 2854.05 1556)">
   <path d="M 79.3457 32.8613 C 116.748 32.8613 147.412 2.19727 147.412 -35.2051 C 147.412 -72.6074 116.748 -103.271 79.2969 -103.271 C 41.8945 -103.271 11.2793 -72.6074 11.2793 -35.2051 C 11.2793 2.19727 41.9434 32.8613 79.3457 32.8613 Z M 79.3945 -27.1484 C 74.1211 -27.1484 71.0449 -30.0293 70.7031 -35.2051 L 69.5801 -58.3008 C 69.2383 -64.0137 73.2422 -67.8223 79.2969 -67.8223 C 85.3027 -67.8223 89.3555 -63.9648 89.0137 -58.3008 L 87.8906 -35.3516 C 87.5488 -29.9805 84.5215 -27.1484 79.3945 -27.1484 Z M 79.3945 -3.22266 C 73.5352 -3.22266 69.1406 -6.54297 69.1406 -12.0605 C 69.1406 -17.5293 73.5352 -20.9473 79.3945 -20.9473 C 85.2051 -20.9473 89.4531 -17.5293 89.4531 -12.0605 C 89.4531 -6.54297 85.2051 -3.22266 79.3945 -3.22266 Z"/>
  </g>
  <g id="Heavy-L" transform="matrix(1 0 0 1 2558.39 1556)">
   <path d="M 78.2715 31.7871 C 115.088 31.7871 145.312 1.5625 145.312 -35.2051 C 145.312 -72.0215 115.039 -102.246 78.2715 -102.246 C 41.4551 -102.246 11.2793 -72.0215 11.2793 -35.2051 C 11.2793 1.5625 41.5039 31.7871 78.2715 31.7871 Z M 78.2715 -26.3184 C 73.6328 -26.3184 70.8984 -28.9062 70.6055 -33.5449 L 69.5801 -59.3262 C 69.3359 -64.3555 72.9004 -67.7734 78.2227 -67.7734 C 83.5449 -67.7734 87.1582 -64.3066 86.9141 -59.2773 L 85.791 -33.6426 C 85.5469 -28.8574 82.8613 -26.3184 78.2715 -26.3184 Z M 78.2715 -3.22266 C 73.0469 -3.22266 68.9941 -6.44531 68.9941 -11.4746 C 68.9941 -16.4551 72.998 -19.6777 78.2715 -19.6777 C 83.5938 -19.6777 87.5 -16.4062 87.5 -11.4746 C 87.5 -6.39648 83.5449 -3.22266 78.2715 -3.22266 Z"/>
  </g>
  <g id="Bold-L" transform="matrix(1 0 0 1 2262.88 1556)">
   <path d="M 77.0996 30.5664 C 113.232 30.5664 142.92 0.878906 142.92 -35.2539 C 142.92 -71.3379 113.184 -101.074 77.0508 -101.074 C 40.9668 -101.074 11.2793 -71.3379 11.2793 -35.2539 C 11.2793 0.878906 41.0156 30.5664 77.0996 30.5664 Z M 77.0996 -25.3906 C 73.0469 -25.3906 70.7031 -27.6367 70.5566 -31.7383 L 69.5801 -60.4492 C 69.4336 -64.7461 72.4609 -67.7246 77.0508 -67.7246 C 81.543 -67.7246 84.668 -64.6973 84.4727 -60.4004 L 83.4961 -31.7871 C 83.3496 -27.6367 81.0059 -25.3906 77.0996 -25.3906 Z M 77.0996 -3.22266 C 72.4609 -3.22266 68.7988 -6.29883 68.7988 -10.7422 C 68.7988 -15.1855 72.4121 -18.2617 77.0996 -18.2617 C 81.7383 -18.2617 85.3516 -15.1855 85.3516 -10.7422 C 85.3516 -6.25 81.7383 -3.22266 77.0996 -3.22266 Z"/>
  </g>
  <g id="Semibold-L" transform="matrix(1 0 0 1 1966.97 1556)">
   <path d="M 76.2695 29.7363 C 111.914 29.7363 141.309 0.390625 141.309 -35.2539 C 141.309 -70.8984 111.865 -100.244 76.2695 -100.244 C 40.625 -100.244 11.2793 -70.8984 11.2793 -35.2539 C 11.2793 0.390625 40.6738 29.7363 76.2695 29.7363 Z M 76.2695 -24.7559 C 72.6562 -24.7559 70.6055 -26.8066 70.459 -30.4688 L 69.5801 -61.2305 C 69.4824 -65.0391 72.168 -67.6758 76.2207 -67.6758 C 80.1758 -67.6758 82.959 -64.9902 82.8613 -61.1816 L 81.9336 -30.4688 C 81.7871 -26.7578 79.7363 -24.7559 76.2695 -24.7559 Z M 76.2695 -3.27148 C 72.0703 -3.27148 68.6523 -6.20117 68.6523 -10.2539 C 68.6523 -14.3555 72.0215 -17.334 76.2695 -17.334 C 80.5176 -17.334 83.8379 -14.3555 83.8379 -10.2539 C 83.8379 -6.15234 80.4688 -3.27148 76.2695 -3.27148 Z"/>
  </g>
  <g id="Medium-L" transform="matrix(1 0 0 1 1670.87 1556)">
   <path d="M 75.6836 29.1504 C 110.938 29.1504 140.088 0 140.088 -35.2539 C 140.088 -70.5078 110.889 -99.6582 75.6348 -99.6582 C 40.3809 -99.6582 11.2793 -70.5078 11.2793 -35.2539 C 11.2793 0 40.3809 29.1504 75.6836 29.1504 Z M 75.6348 -24.2676 C 72.3633 -24.2676 70.5078 -26.1719 70.4102 -29.4922 L 69.6289 -61.8164 C 69.5312 -65.2344 71.9727 -67.627 75.5859 -67.627 C 79.1504 -67.627 81.6895 -65.1855 81.5918 -61.7676 L 80.7129 -29.4922 C 80.6152 -26.123 78.7598 -24.2676 75.6348 -24.2676 Z M 75.6348 -3.27148 C 71.7773 -3.27148 68.5547 -6.15234 68.5547 -9.91211 C 68.5547 -13.6719 71.7285 -16.6016 75.6348 -16.6016 C 79.541 -16.6016 82.7148 -13.7207 82.7148 -9.91211 C 82.7148 -6.10352 79.4922 -3.27148 75.6348 -3.27148 Z"/>
  </g>
  <g id="Regular-L" transform="matrix(1 0 0 1 1374.97 1556)">
   <path d="M 74.8535 28.3203 C 109.668 28.3203 138.477 -0.488281 138.477 -35.2539 C 138.477 -70.0684 109.619 -98.877 74.8047 -98.877 C 40.0391 -98.877 11.2793 -70.0684 11.2793 -35.2539 C 11.2793 -0.488281 40.0879 28.3203 74.8535 28.3203 Z M 74.8047 -23.6328 C 72.0215 -23.6328 70.4102 -25.293 70.3613 -28.2227 L 69.6289 -62.5977 C 69.5801 -65.5273 71.6797 -67.627 74.7559 -67.627 C 77.7832 -67.627 80.0293 -65.4785 79.9805 -62.5488 L 79.1504 -28.2227 C 79.1016 -25.2441 77.5391 -23.6328 74.8047 -23.6328 Z M 74.8047 -3.27148 C 71.3867 -3.27148 68.4082 -6.05469 68.4082 -9.42383 C 68.4082 -12.8418 71.3379 -15.625 74.8047 -15.625 C 78.3203 -15.625 81.2012 -12.8906 81.2012 -9.42383 C 81.2012 -6.00586 78.2715 -3.27148 74.8047 -3.27148 Z"/>
  </g>
  <g id="Light-L" transform="matrix(1 0 0 1 1079.18 1556)">
   <path d="M 73.9258 27.3926 C 108.301 27.3926 136.621 -0.927734 136.621 -35.2539 C 136.621 -69.6289 108.252 -97.9492 73.9258 -97.9492 C 39.5508 -97.9492 11.2793 -69.6289 11.2793 -35.2539 C 11.2793 -0.927734 39.5996 27.3926 73.9258 27.3926 Z M 73.9258 -23.8281 C 71.7285 -23.8281 70.4102 -25.1953 70.4102 -27.5879 L 69.7754 -62.0117 C 69.7754 -64.3555 71.3867 -66.0645 73.877 -66.0645 C 76.3184 -66.0645 78.0273 -64.3555 77.9785 -61.9629 L 77.3438 -27.5879 C 77.3438 -25.1953 76.0254 -23.8281 73.9258 -23.8281 Z M 73.9258 -4.44336 C 70.8984 -4.44336 68.4082 -6.88477 68.4082 -9.81445 C 68.4082 -12.7441 70.8984 -15.1855 73.9258 -15.1855 C 76.9531 -15.1855 79.3945 -12.793 79.3945 -9.81445 C 79.3945 -6.88477 76.9043 -4.44336 73.9258 -4.44336 Z"/>
  </g>
  <g id="Thin-L" transform="matrix(1 0 0 1 783.693 1556)">
   <path d="M 72.7051 26.1719 C 106.494 26.1719 134.18 -1.51367 134.18 -35.2539 C 134.18 -69.043 106.494 -96.7285 72.7051 -96.7285 C 38.9648 -96.7285 11.2793 -69.043 11.2793 -35.2539 C 11.2793 -1.51367 38.9648 26.1719 72.7051 26.1719 Z M 72.7051 -24.0234 C 71.3867 -24.0234 70.459 -25.0977 70.459 -26.709 L 70.0195 -61.2305 C 70.0195 -62.8418 71.0449 -63.9648 72.7051 -63.9648 C 74.3652 -63.9648 75.4395 -62.8418 75.3906 -61.1816 L 74.9512 -26.709 C 74.9512 -25.0977 74.0234 -24.0234 72.7051 -24.0234 Z M 72.7051 -6.00586 C 70.3125 -6.00586 68.3594 -8.00781 68.3594 -10.3027 C 68.3594 -12.6465 70.3125 -14.5996 72.7051 -14.5996 C 75.1465 -14.5996 77.0508 -12.6465 77.0508 -10.3027 C 77.0508 -8.00781 75.0977 -6.00586 72.7051 -6.00586 Z"/>
  </g>
  <g id="Ultralight-L" transform="matrix(1 0 0 1 487.616 1556)">
   <path d="M 72.1191 25.5371 C 105.566 25.5371 132.91 -1.80664 132.91 -35.2539 C 132.91 -68.75 105.566 -96.0938 72.1191 -96.0938 C 38.623 -96.0938 11.2793 -68.75 11.2793 -35.2539 C 11.2793 -1.80664 38.623 25.5371 72.1191 25.5371 Z M 72.1191 -24.1699 C 71.1914 -24.1699 70.459 -25.0488 70.459 -26.2695 L 70.1172 -60.791 C 70.1172 -62.0605 70.8496 -62.8906 72.1191 -62.8906 C 73.3398 -62.8906 74.0723 -62.0605 74.0723 -60.8398 L 73.7305 -26.2695 C 73.7305 -25.0488 73.0469 -24.1699 72.1191 -24.1699 Z M 72.1191 -6.78711 C 69.9707 -6.78711 68.3594 -8.59375 68.3594 -10.5469 C 68.3594 -12.5488 70.0195 -14.3066 72.1191 -14.3066 C 74.2188 -14.3066 75.8301 -12.5488 75.8301 -10.5469 C 75.8301 -8.59375 74.2188 -6.78711 72.1191 -6.78711 Z"/>
  </g>
  <g id="Black-M" transform="matrix(1 0 0 1 2870.97 1126)">
   <path d="M 62.4023 18.457 C 91.9922 18.457 116.113 -5.61523 116.113 -35.2051 C 116.113 -64.7949 91.9922 -88.8672 62.4023 -88.8672 C 32.8125 -88.8672 8.74023 -64.7949 8.74023 -35.2051 C 8.74023 -5.61523 32.8125 18.457 62.4023 18.457 Z M 62.5 -30.1758 C 57.959 -30.1758 55.2734 -32.6172 54.9316 -37.1094 L 54.0039 -51.4648 C 53.6621 -56.4453 57.1289 -59.668 62.4023 -59.668 C 67.7246 -59.668 71.1426 -56.4453 70.8496 -51.4648 L 69.9219 -37.207 C 69.5801 -32.6172 66.9434 -30.1758 62.5 -30.1758 Z M 62.5 -10.9863 C 57.4707 -10.9863 53.8086 -13.623 53.8086 -18.3105 C 53.8086 -22.998 57.4707 -25.5859 62.5 -25.5859 C 67.5293 -25.5859 70.9961 -22.9004 70.9961 -18.3105 C 70.9961 -13.623 67.5293 -10.9863 62.5 -10.9863 Z"/>
  </g>
  <g id="Heavy-M" transform="matrix(1 0 0 1 2575.19 1126)">
   <path d="M 61.5234 17.5293 C 90.5273 17.5293 114.258 -6.20117 114.258 -35.2051 C 114.258 -64.2578 90.5273 -87.9883 61.4746 -87.9883 C 32.4707 -87.9883 8.74023 -64.2578 8.74023 -35.2051 C 8.74023 -6.20117 32.4707 17.5293 61.5234 17.5293 Z M 61.5234 -29.248 C 57.4707 -29.248 55.0781 -31.4453 54.834 -35.4492 L 53.9551 -52.6855 C 53.7109 -57.1289 56.7871 -60.0586 61.4746 -60.0586 C 66.1621 -60.0586 69.2871 -57.0801 68.9941 -52.6855 L 68.1152 -35.5469 C 67.8711 -31.4453 65.5273 -29.248 61.5234 -29.248 Z M 61.5234 -10.7422 C 57.0312 -10.7422 53.6133 -13.2812 53.6133 -17.5293 C 53.6133 -21.7773 56.9824 -24.3652 61.5234 -24.3652 C 66.0645 -24.3652 69.3359 -21.7285 69.3359 -17.5293 C 69.3359 -13.2812 66.0645 -10.7422 61.5234 -10.7422 Z"/>
  </g>
  <g id="Bold-M" transform="matrix(1 0 0 1 2279.5 1126)">
   <path d="M 60.498 16.5039 C 88.8672 16.5039 112.207 -6.83594 112.207 -35.2051 C 112.207 -63.623 88.8672 -86.9629 60.4492 -86.9629 C 32.0312 -86.9629 8.74023 -63.623 8.74023 -35.2051 C 8.74023 -6.83594 32.0801 16.5039 60.498 16.5039 Z M 60.498 -28.1738 C 56.9824 -28.1738 54.9316 -30.127 54.7363 -33.6426 L 53.9062 -54.1016 C 53.7598 -57.9102 56.4453 -60.4492 60.4492 -60.4492 C 64.4043 -60.4492 67.1387 -57.8613 66.9434 -54.1016 L 66.1621 -33.6914 C 65.9668 -30.0781 63.9648 -28.1738 60.498 -28.1738 Z M 60.498 -10.4004 C 56.543 -10.4004 53.418 -12.8906 53.418 -16.6992 C 53.418 -20.459 56.4941 -22.9492 60.498 -22.9492 C 64.502 -22.9492 67.4805 -20.459 67.4805 -16.6992 C 67.4805 -12.8418 64.4531 -10.4004 60.498 -10.4004 Z"/>
  </g>
  <g id="Semibold-M" transform="matrix(1 0 0 1 1983.5 1126)">
   <path d="M 59.7656 15.8203 C 87.7441 15.8203 110.791 -7.27539 110.791 -35.2539 C 110.791 -63.2324 87.6953 -86.2793 59.7656 -86.2793 C 31.7871 -86.2793 8.74023 -63.2324 8.74023 -35.2539 C 8.74023 -7.27539 31.7871 15.8203 59.7656 15.8203 Z M 59.7656 -27.4414 C 56.5918 -27.4414 54.7852 -29.1992 54.6387 -32.373 L 53.9062 -55.0781 C 53.7598 -58.3984 56.1523 -60.7422 59.7168 -60.7422 C 63.2324 -60.7422 65.6738 -58.3984 65.5762 -55.0293 L 64.7949 -32.4219 C 64.6484 -29.1504 62.8418 -27.4414 59.7656 -27.4414 Z M 59.7656 -10.2051 C 56.2012 -10.2051 53.2715 -12.5977 53.2715 -16.0645 C 53.2715 -19.5312 56.1523 -21.9727 59.7656 -21.9727 C 63.3789 -21.9727 66.2109 -19.5312 66.2109 -16.0645 C 66.2109 -12.5977 63.3789 -10.2051 59.7656 -10.2051 Z"/>
  </g>
  <g id="Medium-M" transform="matrix(1 0 0 1 1687.3 1126)">
   <path d="M 59.2285 15.2344 C 86.9141 15.2344 109.766 -7.61719 109.766 -35.2539 C 109.766 -62.8906 86.8652 -85.7422 59.1797 -85.7422 C 31.543 -85.7422 8.74023 -62.8906 8.74023 -35.2539 C 8.74023 -7.61719 31.5918 15.2344 59.2285 15.2344 Z M 59.2285 -26.9043 C 56.3477 -26.9043 54.6875 -28.5156 54.5898 -31.4453 L 53.9062 -55.8105 C 53.8086 -58.8379 55.957 -60.9375 59.1797 -60.9375 C 62.3047 -60.9375 64.5996 -58.7891 64.502 -55.7617 L 63.7207 -31.4453 C 63.623 -28.4668 62.0117 -26.9043 59.2285 -26.9043 Z M 59.2285 -10.0098 C 55.9082 -10.0098 53.1738 -12.4023 53.1738 -15.625 C 53.1738 -18.8477 55.8594 -21.2402 59.2285 -21.2402 C 62.5488 -21.2402 65.2344 -18.8477 65.2344 -15.625 C 65.2344 -12.3535 62.5 -10.0098 59.2285 -10.0098 Z"/>
  </g>
  <g id="Regular-M" transform="matrix(1 0 0 1 1391.3 1126)">
   <path d="M 58.5449 14.5508 C 85.791 14.5508 108.35 -8.05664 108.35 -35.2539 C 108.35 -62.5 85.7422 -85.0586 58.4961 -85.0586 C 31.2988 -85.0586 8.74023 -62.5 8.74023 -35.2539 C 8.74023 -8.05664 31.3477 14.5508 58.5449 14.5508 Z M 58.4961 -26.1719 C 55.957 -26.1719 54.541 -27.5879 54.4922 -30.1758 L 53.8574 -56.7871 C 53.8086 -59.375 55.7129 -61.2305 58.4473 -61.2305 C 61.1328 -61.2305 63.1348 -59.3262 63.0859 -56.7383 L 62.4023 -30.1758 C 62.3535 -27.5391 60.9375 -26.1719 58.4961 -26.1719 Z M 58.4961 -9.81445 C 55.5664 -9.81445 53.0273 -12.1582 53.0273 -15.0391 C 53.0273 -17.9199 55.5176 -20.3125 58.4961 -20.3125 C 61.4746 -20.3125 63.9648 -17.9688 63.9648 -15.0391 C 63.9648 -12.1094 61.4258 -9.81445 58.4961 -9.81445 Z"/>
  </g>
  <g id="Light-M" transform="matrix(1 0 0 1 1095.42 1126)">
   <path d="M 57.7148 13.7207 C 84.5215 13.7207 106.689 -8.44727 106.689 -35.2539 C 106.689 -62.1094 84.5215 -84.2285 57.666 -84.2285 C 30.8594 -84.2285 8.74023 -62.1094 8.74023 -35.2539 C 8.74023 -8.44727 30.9082 13.7207 57.7148 13.7207 Z M 57.666 -26.3184 C 55.7129 -26.3184 54.5898 -27.4902 54.541 -29.5898 L 54.0039 -56.25 C 54.0039 -58.3008 55.4688 -59.8145 57.666 -59.8145 C 59.8145 -59.8145 61.377 -58.3008 61.3281 -56.2012 L 60.7422 -29.5898 C 60.7422 -27.4902 59.5703 -26.3184 57.666 -26.3184 Z M 57.666 -10.8398 C 55.1758 -10.8398 53.0273 -12.8906 53.0273 -15.3809 C 53.0273 -17.8223 55.127 -19.873 57.666 -19.873 C 60.2539 -19.873 62.3535 -17.8711 62.3535 -15.3809 C 62.3535 -12.8906 60.2051 -10.8398 57.666 -10.8398 Z"/>
  </g>
  <g id="Thin-M" transform="matrix(1 0 0 1 799.806 1126)">
   <path d="M 56.6406 12.5977 C 82.9102 12.5977 104.492 -8.98438 104.492 -35.2539 C 104.492 -61.5723 82.9102 -83.1543 56.5918 -83.1543 C 30.3223 -83.1543 8.74023 -61.5723 8.74023 -35.2539 C 8.74023 -8.98438 30.3223 12.5977 56.6406 12.5977 Z M 56.5918 -26.5137 C 55.3711 -26.5137 54.5898 -27.3926 54.5898 -28.8086 L 54.1992 -55.5176 C 54.1992 -56.9824 55.127 -57.959 56.5918 -57.959 C 58.0566 -57.959 59.0332 -56.9336 59.0332 -55.5176 L 58.5938 -28.8086 C 58.5938 -27.3926 57.8125 -26.5137 56.5918 -26.5137 Z M 56.5918 -12.2559 C 54.6387 -12.2559 53.0273 -13.916 53.0273 -15.8203 C 53.0273 -17.7246 54.5898 -19.3848 56.5918 -19.3848 C 58.5938 -19.3848 60.2051 -17.7246 60.2051 -15.8203 C 60.2051 -13.916 58.5938 -12.2559 56.5918 -12.2559 Z"/>
  </g>
  <g id="Ultralight-M" transform="matrix(1 0 0 1 503.656 1126)">
   <path d="M 56.0547 12.0605 C 82.0801 12.0605 103.369 -9.22852 103.369 -35.2539 C 103.369 -61.2793 82.0801 -82.5684 56.0547 -82.5684 C 30.0293 -82.5684 8.74023 -61.2793 8.74023 -35.2539 C 8.74023 -9.22852 30.0293 12.0605 56.0547 12.0605 Z M 56.0547 -26.6113 C 55.2246 -26.6113 54.6387 -27.3438 54.6387 -28.418 L 54.2969 -55.1758 C 54.2969 -56.25 54.9805 -56.9824 56.0547 -56.9824 C 57.1777 -56.9824 57.8125 -56.25 57.8125 -55.1758 L 57.5195 -28.418 C 57.5195 -27.3438 56.8848 -26.6113 56.0547 -26.6113 Z M 56.0547 -12.9395 C 54.3457 -12.9395 52.9785 -14.4043 52.9785 -16.0156 C 52.9785 -17.6758 54.3457 -19.0918 56.0547 -19.0918 C 57.7637 -19.0918 59.1309 -17.6758 59.1309 -16.0156 C 59.1309 -14.4043 57.7637 -12.9395 56.0547 -12.9395 Z"/>
  </g>
  <g id="Black-S" transform="matrix(1 0 0 1 2884.57 696)">
   <path d="M 48.8281 6.78711 C 71.9727 6.78711 90.8203 -12.0605 90.8203 -35.2051 C 90.8203 -58.3496 71.9727 -77.1973 48.8281 -77.1973 C 25.6836 -77.1973 6.83594 -58.3496 6.83594 -35.2051 C 6.83594 -12.0605 25.6836 6.78711 48.8281 6.78711 Z M 48.877 -31.2012 C 45.3613 -31.2012 43.2617 -33.1055 43.0176 -36.5723 L 42.2852 -48.0469 C 42.041 -51.9043 44.7266 -54.4434 48.8281 -54.4434 C 52.9297 -54.4434 55.6152 -51.9043 55.3711 -48.0469 L 54.6387 -36.6699 C 54.3945 -33.1055 52.3438 -31.2012 48.877 -31.2012 Z M 48.877 -16.2109 C 44.9707 -16.2109 42.1387 -18.2617 42.1387 -21.9238 C 42.1387 -25.5371 44.9707 -27.5879 48.877 -27.5879 C 52.7832 -27.5879 55.5176 -25.4883 55.5176 -21.9238 C 55.5176 -18.2617 52.7832 -16.2109 48.877 -16.2109 Z"/>
  </g>
  <g id="Heavy-S" transform="matrix(1 0 0 1 2588.47 696)">
   <path d="M 48.2422 6.15234 C 70.9961 6.15234 89.5996 -12.4512 89.5996 -35.2051 C 89.5996 -57.959 70.9961 -76.6113 48.1934 -76.6113 C 25.4395 -76.6113 6.83594 -57.959 6.83594 -35.2051 C 6.83594 -12.4512 25.4395 6.15234 48.2422 6.15234 Z M 48.2422 -30.4688 C 45.0195 -30.4688 43.1152 -32.2266 42.9199 -35.4004 L 42.2363 -49.0723 C 42.041 -52.5391 44.4824 -54.8828 48.1934 -54.8828 C 51.9043 -54.8828 54.3457 -52.5391 54.1504 -49.0723 L 53.4668 -35.4492 C 53.2715 -32.1777 51.416 -30.4688 48.2422 -30.4688 Z M 48.2422 -15.8691 C 44.6777 -15.8691 41.9922 -17.9199 41.9922 -21.2891 C 41.9922 -24.6582 44.6777 -26.6602 48.2422 -26.6602 C 51.8066 -26.6602 54.4434 -24.6094 54.4434 -21.2891 C 54.4434 -17.9199 51.8066 -15.8691 48.2422 -15.8691 Z"/>
  </g>
  <g id="Bold-S" transform="matrix(1 0 0 1 2292.44 696)">
   <path d="M 47.5586 5.46875 C 69.873 5.46875 88.2324 -12.8906 88.2324 -35.2539 C 88.2324 -57.5684 69.873 -75.9277 47.5098 -75.9277 C 25.1953 -75.9277 6.83594 -57.5684 6.83594 -35.2539 C 6.83594 -12.8906 25.1953 5.46875 47.5586 5.46875 Z M 47.5586 -29.6387 C 44.6777 -29.6387 43.0176 -31.2012 42.8711 -34.082 L 42.1875 -50.1953 C 42.041 -53.2715 44.2383 -55.3711 47.5098 -55.3711 C 50.7324 -55.3711 52.9785 -53.2227 52.832 -50.1953 L 52.1484 -34.1309 C 52.002 -31.1523 50.3418 -29.6387 47.5586 -29.6387 Z M 47.5586 -15.5273 C 44.3359 -15.5273 41.8457 -17.5293 41.8457 -20.6055 C 41.8457 -23.6328 44.3359 -25.6348 47.5586 -25.6348 C 50.7812 -25.6348 53.1738 -23.6328 53.1738 -20.6055 C 53.1738 -17.4805 50.7324 -15.5273 47.5586 -15.5273 Z"/>
  </g>
  <g id="Semibold-S" transform="matrix(1 0 0 1 1996.2 696)">
   <path d="M 47.0703 4.98047 C 69.0918 4.98047 87.3047 -13.1836 87.3047 -35.2539 C 87.3047 -57.2754 69.0918 -75.4883 47.0215 -75.4883 C 25 -75.4883 6.83594 -57.2754 6.83594 -35.2539 C 6.83594 -13.1836 25.0488 4.98047 47.0703 4.98047 Z M 47.0703 -29.0527 C 44.3848 -29.0527 42.9199 -30.5176 42.7734 -33.1543 L 42.1875 -50.9766 C 42.041 -53.7598 44.0918 -55.7129 47.0215 -55.7129 C 49.9023 -55.7129 52.002 -53.7109 51.9043 -50.9766 L 51.2207 -33.1543 C 51.123 -30.4688 49.6582 -29.0527 47.0703 -29.0527 Z M 47.0703 -15.2344 C 44.1406 -15.2344 41.748 -17.2363 41.748 -20.1172 C 41.748 -22.9492 44.0918 -24.9512 47.0703 -24.9512 C 50 -24.9512 52.3438 -22.9492 52.3438 -20.1172 C 52.3438 -17.1875 50 -15.2344 47.0703 -15.2344 Z"/>
  </g>
  <g id="Medium-S" transform="matrix(1 0 0 1 1699.83 696)">
   <path d="M 46.7285 4.63867 C 68.5547 4.63867 86.6211 -13.4277 86.6211 -35.2539 C 86.6211 -57.0801 68.5059 -75.1465 46.6797 -75.1465 C 24.8535 -75.1465 6.83594 -57.0801 6.83594 -35.2539 C 6.83594 -13.4277 24.9023 4.63867 46.7285 4.63867 Z M 46.6797 -28.6133 C 44.1895 -28.6133 42.8223 -29.9805 42.7246 -32.4707 L 42.1387 -51.5625 C 42.041 -54.1504 43.9453 -55.957 46.6309 -55.957 C 49.3164 -55.957 51.2695 -54.1016 51.1719 -51.5625 L 50.5371 -32.4707 C 50.4883 -29.9316 49.0723 -28.6133 46.6797 -28.6133 Z M 46.6797 -15.0391 C 43.9453 -15.0391 41.6504 -17.041 41.6504 -19.7266 C 41.6504 -22.4121 43.8965 -24.4141 46.6797 -24.4141 C 49.4629 -24.4141 51.709 -22.4121 51.709 -19.7266 C 51.709 -16.9922 49.4141 -15.0391 46.6797 -15.0391 Z"/>
  </g>
  <g id="Regular-S" transform="matrix(1 0 0 1 1403.58 696)">
   <path d="M 46.2402 4.15039 C 67.7734 4.15039 85.6934 -13.7207 85.6934 -35.2539 C 85.6934 -56.7871 67.7246 -74.6582 46.1914 -74.6582 C 24.707 -74.6582 6.83594 -56.7871 6.83594 -35.2539 C 6.83594 -13.7207 24.7559 4.15039 46.2402 4.15039 Z M 46.1914 -28.0273 C 43.9453 -28.0273 42.7246 -29.2969 42.6758 -31.543 L 42.0898 -52.3438 C 42.0898 -54.6387 43.75 -56.2988 46.1426 -56.2988 C 48.5352 -56.2988 50.293 -54.5898 50.2441 -52.2949 L 49.6582 -31.543 C 49.6094 -29.248 48.3887 -28.0273 46.1914 -28.0273 Z M 46.1914 -14.7949 C 43.75 -14.7949 41.5527 -16.748 41.5527 -19.2383 C 41.5527 -21.7285 43.7012 -23.7305 46.1914 -23.7305 C 48.7305 -23.7305 50.8789 -21.7773 50.8789 -19.2383 C 50.8789 -16.6992 48.6816 -14.7949 46.1914 -14.7949 Z"/>
  </g>
  <g id="Light-S" transform="matrix(1 0 0 1 1107.6 696)">
   <path d="M 45.5078 3.41797 C 66.6992 3.41797 84.2285 -14.0625 84.2285 -35.2539 C 84.2285 -56.4453 66.6504 -73.9258 45.5078 -73.9258 C 24.3164 -73.9258 6.83594 -56.4453 6.83594 -35.2539 C 6.83594 -14.0625 24.3652 3.41797 45.5078 3.41797 Z M 45.5078 -28.1738 C 43.75 -28.1738 42.7246 -29.1992 42.7246 -31.0547 L 42.2363 -51.9043 C 42.2363 -53.7109 43.5547 -55.0293 45.459 -55.0293 C 47.3633 -55.0293 48.7305 -53.6621 48.7305 -51.8555 L 48.1934 -31.0547 C 48.1934 -29.1992 47.168 -28.1738 45.5078 -28.1738 Z M 45.5078 -15.7227 C 43.3594 -15.7227 41.5527 -17.4316 41.5527 -19.5312 C 41.5527 -21.6309 43.3594 -23.3887 45.5078 -23.3887 C 47.6562 -23.3887 49.4629 -21.6797 49.4629 -19.5312 C 49.4629 -17.4316 47.6074 -15.7227 45.5078 -15.7227 Z"/>
  </g>
  <g id="Thin-S" transform="matrix(1 0 0 1 811.867 696)">
   <path d="M 44.5801 2.49023 C 65.2832 2.49023 82.2754 -14.5508 82.2754 -35.2539 C 82.2754 -55.957 65.2344 -72.998 44.5312 -72.998 C 23.8281 -72.998 6.83594 -55.957 6.83594 -35.2539 C 6.83594 -14.5508 23.877 2.49023 44.5801 2.49023 Z M 44.5312 -28.3691 C 43.457 -28.3691 42.7734 -29.1016 42.7246 -30.3711 L 42.4316 -51.2695 C 42.3828 -52.5391 43.2617 -53.3691 44.5312 -53.3691 C 45.8008 -53.3691 46.6797 -52.4902 46.6797 -51.2695 L 46.3379 -30.3711 C 46.2891 -29.1016 45.6055 -28.3691 44.5312 -28.3691 Z M 44.5312 -16.9434 C 42.8711 -16.9434 41.5039 -18.3105 41.5039 -19.9219 C 41.5039 -21.5332 42.8711 -22.9004 44.5312 -22.9004 C 46.2402 -22.9004 47.5586 -21.582 47.5586 -19.9219 C 47.5586 -18.3105 46.1914 -16.9434 44.5312 -16.9434 Z"/>
  </g>
  <g id="Ultralight-S" transform="matrix(1 0 0 1 515.644 696)">
   <path d="M 44.043 1.95312 C 64.502 1.95312 81.2988 -14.7949 81.2988 -35.2539 C 81.2988 -55.7129 64.502 -72.4609 44.043 -72.4609 C 23.584 -72.4609 6.83594 -55.7129 6.83594 -35.2539 C 6.83594 -14.7949 23.584 1.95312 44.043 1.95312 Z M 44.043 -28.4668 C 43.3105 -28.4668 42.7734 -29.0527 42.7734 -30.0293 L 42.5293 -50.9277 C 42.5293 -51.9043 43.1152 -52.5391 44.043 -52.5391 C 45.0195 -52.5391 45.6055 -51.9043 45.6055 -50.9277 L 45.3613 -30.0293 C 45.3613 -29.0527 44.8242 -28.4668 44.043 -28.4668 Z M 44.043 -17.5781 C 42.627 -17.5781 41.5039 -18.7988 41.5039 -20.1172 C 41.5039 -21.4844 42.627 -22.6562 44.043 -22.6562 C 45.459 -22.6562 46.6309 -21.4844 46.6309 -20.1172 C 46.6309 -18.7988 45.459 -17.5781 44.043 -17.5781 Z"/>
  </g>
 </g>
</svg>
